<svg width="360" height="800" viewBox="0 0 360 800" fill="none" xmlns="http://www.w3.org/2000/svg">
<rect width="360" height="800" fill="white"/>
<rect width="360" height="800" fill="#ECF1F2"/>
<path d="M42.68 100.62V100.7C42.68 101.193 42.98 101.747 43.58 102.36C44.18 102.973 45.12 103.54 46.4 104.06L45.12 105.84C44.36 105.56 43.66 105.193 43.02 104.74C42.3933 104.273 41.86 103.76 41.42 103.2C40.9667 103.813 40.42 104.353 39.78 104.82C39.14 105.273 38.4 105.68 37.56 106.04L36.3 104.28C37.66 103.68 38.6333 103.06 39.22 102.42C39.82 101.767 40.12 101.193 40.12 100.7V100.62H37.12V98.68H45.74V100.62H42.68ZM38.72 95.72H44.14V97.72H38.72V95.72ZM50.56 106H48.04V103.02H45.46V100.92H48.04V95.76H50.56V106ZM45.2 111.24C45.8 111.24 46.2933 111.207 46.68 111.14C47.08 111.087 47.3933 111 47.62 110.88C47.86 110.76 48.0267 110.613 48.12 110.44C48.2133 110.267 48.26 110.06 48.26 109.82C48.26 109.58 48.2133 109.373 48.12 109.2C48.0267 109.013 47.86 108.86 47.62 108.74C47.3933 108.62 47.08 108.527 46.68 108.46C46.2933 108.393 45.8 108.36 45.2 108.36C43.9733 108.36 43.1533 108.487 42.74 108.74C42.3267 108.993 42.12 109.353 42.12 109.82C42.12 110.287 42.3267 110.64 42.74 110.88C43.1533 111.12 43.9733 111.24 45.2 111.24ZM45.2 113.24C43.1733 113.24 41.7333 112.927 40.88 112.3C40.04 111.687 39.62 110.86 39.62 109.82C39.62 108.767 40.04 107.927 40.88 107.3C41.7333 106.673 43.1733 106.36 45.2 106.36C47.2133 106.36 48.6467 106.673 49.5 107.3C50.34 107.927 50.76 108.767 50.76 109.82C50.76 110.873 50.34 111.707 49.5 112.32C48.6733 112.933 47.24 113.24 45.2 113.24ZM65.4034 104.92C64.8434 104.8 64.2901 104.62 63.7434 104.38C63.1968 104.14 62.6768 103.86 62.1834 103.54C61.7034 103.22 61.2634 102.88 60.8634 102.52C60.4768 102.16 60.1568 101.8 59.9034 101.44C59.6234 101.8 59.2834 102.167 58.8834 102.54C58.4834 102.9 58.0434 103.24 57.5634 103.56C57.0834 103.867 56.5768 104.14 56.0434 104.38C55.5101 104.62 54.9634 104.8 54.4034 104.92L53.3634 103.14C54.1501 102.913 54.8634 102.627 55.5034 102.28C56.1568 101.92 56.7168 101.533 57.1834 101.12C57.6501 100.693 58.0101 100.253 58.2634 99.8C58.5168 99.3333 58.6434 98.88 58.6434 98.44V96.32H61.1434V98.44C61.1434 98.88 61.2701 99.3333 61.5234 99.8C61.7768 100.267 62.1301 100.713 62.5834 101.14C63.0501 101.553 63.6101 101.933 64.2634 102.28C64.9168 102.627 65.6434 102.913 66.4434 103.14L65.4034 104.92ZM61.2234 104.32V107.98H67.5434V110.02H52.2834V107.98H58.7234V104.32H61.2234ZM76.6723 112.96C76.0857 112.96 75.679 112.86 75.4523 112.66C75.2257 112.46 75.1123 112.04 75.1123 111.4V106.14H85.7723V112.96H76.6723ZM88.0723 104.72H72.8123V102.66H82.6323C82.739 102.38 82.8323 102.107 82.9123 101.84C82.9923 101.573 83.0657 101.307 83.1323 101.04C83.199 100.733 83.2457 100.433 83.2723 100.14C83.3123 99.8333 83.3323 99.54 83.3323 99.26V98.22H75.0723V96.16H85.8123V98.96C85.8123 99.72 85.7323 100.42 85.5723 101.06C85.4523 101.58 85.2723 102.113 85.0323 102.66H88.0723V104.72ZM83.2723 108.18H77.5923V110.56C77.5923 110.707 77.6123 110.807 77.6523 110.86C77.7057 110.9 77.8057 110.92 77.9523 110.92H83.2723V108.18ZM95.0758 98.84V100.7C95.0758 101.167 95.1624 101.653 95.3358 102.16C95.5224 102.653 95.7891 103.153 96.1358 103.66C96.4958 104.153 96.9224 104.647 97.4158 105.14C97.9224 105.62 98.4958 106.08 99.1358 106.52L97.5758 108.24C96.7624 107.733 96.0291 107.127 95.3758 106.42C94.7358 105.713 94.2158 105 93.8158 104.28C93.3891 105.04 92.8224 105.78 92.1158 106.5C91.4224 107.22 90.6558 107.86 89.8158 108.42L88.2558 106.72C88.9091 106.267 89.5024 105.787 90.0358 105.28C90.5691 104.773 91.0158 104.267 91.3758 103.76C91.7491 103.24 92.0358 102.72 92.2358 102.2C92.4358 101.68 92.5358 101.18 92.5358 100.7V98.84H89.3558V96.78H98.0558V98.84H95.0758ZM100.036 95.76H102.536V112.96H100.036V95.76ZM120.565 95.76H123.065V105.56H120.565V103.34H117.265C116.905 103.713 116.445 104.007 115.885 104.22C115.338 104.433 114.665 104.54 113.865 104.54C113.065 104.54 112.378 104.44 111.805 104.24C111.245 104.027 110.785 103.74 110.425 103.38C110.065 103.007 109.805 102.567 109.645 102.06C109.485 101.54 109.405 100.973 109.405 100.36C109.405 99.76 109.485 99.2 109.645 98.68C109.805 98.16 110.065 97.7133 110.425 97.34C110.785 96.9667 111.245 96.6733 111.805 96.46C112.378 96.2467 113.065 96.14 113.865 96.14C114.665 96.14 115.338 96.2467 115.885 96.46C116.445 96.6733 116.905 96.9733 117.265 97.36L117.385 97.52H120.565V95.76ZM117.705 113.24C116.678 113.24 115.811 113.147 115.105 112.96C114.398 112.787 113.825 112.54 113.385 112.22C112.945 111.9 112.625 111.513 112.425 111.06C112.225 110.62 112.125 110.127 112.125 109.58C112.125 109.047 112.225 108.56 112.425 108.12C112.625 107.667 112.945 107.28 113.385 106.96C113.825 106.627 114.398 106.367 115.105 106.18C115.811 105.993 116.678 105.9 117.705 105.9C118.718 105.9 119.578 105.993 120.285 106.18C120.991 106.353 121.565 106.607 122.005 106.94C122.445 107.26 122.765 107.647 122.965 108.1C123.165 108.553 123.265 109.047 123.265 109.58C123.265 110.127 123.165 110.627 122.965 111.08C122.765 111.533 122.438 111.92 121.985 112.24C121.545 112.56 120.971 112.807 120.265 112.98C119.558 113.153 118.705 113.24 117.705 113.24ZM117.705 111.24C118.305 111.24 118.798 111.2 119.185 111.12C119.585 111.053 119.898 110.947 120.125 110.8C120.365 110.653 120.531 110.48 120.625 110.28C120.718 110.08 120.765 109.847 120.765 109.58C120.765 109.327 120.718 109.093 120.625 108.88C120.531 108.667 120.365 108.493 120.125 108.36C119.898 108.213 119.585 108.1 119.185 108.02C118.798 107.94 118.305 107.9 117.705 107.9C117.078 107.9 116.565 107.94 116.165 108.02C115.778 108.1 115.465 108.213 115.225 108.36C114.998 108.507 114.838 108.687 114.745 108.9C114.665 109.1 114.625 109.327 114.625 109.58C114.625 109.833 114.665 110.067 114.745 110.28C114.838 110.48 114.998 110.653 115.225 110.8C115.451 110.933 115.765 111.04 116.165 111.12C116.565 111.2 117.078 111.24 117.705 111.24ZM115.885 100.36C115.885 99.6267 115.705 99.0867 115.345 98.74C114.998 98.3933 114.505 98.22 113.865 98.22C112.505 98.22 111.825 98.9333 111.825 100.36C111.825 101.773 112.505 102.48 113.865 102.48C114.505 102.48 114.998 102.307 115.345 101.96C115.705 101.613 115.885 101.08 115.885 100.36ZM118.285 100.36C118.285 100.68 118.265 100.98 118.225 101.26H120.565V99.62H118.225C118.265 99.86 118.285 100.107 118.285 100.36ZM136.288 95.76H138.788V105.56H136.288V103.34H132.988C132.628 103.713 132.168 104.007 131.608 104.22C131.061 104.433 130.388 104.54 129.588 104.54C128.788 104.54 128.101 104.44 127.528 104.24C126.968 104.027 126.508 103.74 126.148 103.38C125.788 103.007 125.528 102.567 125.368 102.06C125.208 101.54 125.128 100.973 125.128 100.36C125.128 99.76 125.208 99.2 125.368 98.68C125.528 98.16 125.788 97.7133 126.148 97.34C126.508 96.9667 126.968 96.6733 127.528 96.46C128.101 96.2467 128.788 96.14 129.588 96.14C130.388 96.14 131.061 96.2467 131.608 96.46C132.168 96.6733 132.628 96.9733 132.988 97.36L133.108 97.52H136.288V95.76ZM138.788 113.14H136.288V108.52H127.868V106.46H138.788V113.14ZM131.608 100.36C131.608 99.6267 131.428 99.0867 131.068 98.74C130.721 98.3933 130.228 98.22 129.588 98.22C128.228 98.22 127.548 98.9333 127.548 100.36C127.548 101.773 128.228 102.48 129.588 102.48C130.228 102.48 130.721 102.307 131.068 101.96C131.428 101.613 131.608 101.08 131.608 100.36ZM134.008 100.36C134.008 100.68 133.988 100.98 133.948 101.26H136.288V99.62H133.948C133.988 99.86 134.008 100.107 134.008 100.36ZM154.417 104.44C153.577 104.08 152.824 103.613 152.157 103.04C151.504 102.467 150.977 101.873 150.577 101.26C150.137 101.94 149.584 102.587 148.917 103.2C148.25 103.8 147.477 104.32 146.597 104.76L145.337 102.98C146.604 102.287 147.577 101.487 148.257 100.58C148.95 99.66 149.297 98.76 149.297 97.88V95.98H151.817V97.88C151.817 98.84 152.157 99.7267 152.837 100.54C153.53 101.353 154.477 102.067 155.677 102.68L154.417 104.44ZM159.317 104.44H156.797V100.4H153.777V98.34H156.797V95.76H159.317V104.44ZM151.117 110.78C151.117 110.927 151.137 111.02 151.177 111.06C151.23 111.113 151.33 111.14 151.477 111.14H159.917V113.16H150.177C149.59 113.16 149.184 113.06 148.957 112.86C148.73 112.66 148.617 112.24 148.617 111.6V108.28H156.837V107.36H148.717V105.32H159.317V110.2H151.117V110.78ZM167.34 98.56V98.64C167.34 99.0667 167.427 99.5 167.6 99.94C167.774 100.38 168.02 100.813 168.34 101.24C168.66 101.653 169.054 102.06 169.52 102.46C169.987 102.847 170.514 103.2 171.1 103.52L169.8 105.32C169.44 105.16 169.08 104.953 168.72 104.7C168.36 104.433 168.02 104.147 167.7 103.84C167.38 103.533 167.08 103.22 166.8 102.9C166.534 102.58 166.3 102.273 166.1 101.98C165.674 102.66 165.114 103.307 164.42 103.92C163.74 104.533 162.96 105.067 162.08 105.52L160.78 103.72C161.42 103.36 161.987 102.98 162.48 102.58C162.987 102.167 163.414 101.747 163.76 101.32C164.107 100.88 164.367 100.433 164.54 99.98C164.727 99.5267 164.82 99.08 164.82 98.64V98.56H161.64V96.54H170.36V98.56H167.34ZM175.04 105.62H172.52V101.58H169.7V99.46H172.52V95.76H175.04V105.62ZM169.68 113.24C168.64 113.24 167.767 113.147 167.06 112.96C166.367 112.787 165.8 112.54 165.36 112.22C164.92 111.9 164.6 111.52 164.4 111.08C164.2 110.64 164.1 110.14 164.1 109.58C164.1 109.047 164.2 108.553 164.4 108.1C164.6 107.647 164.92 107.26 165.36 106.94C165.8 106.62 166.367 106.367 167.06 106.18C167.767 105.993 168.64 105.9 169.68 105.9C170.694 105.9 171.554 105.993 172.26 106.18C172.967 106.367 173.54 106.62 173.98 106.94C174.42 107.26 174.74 107.647 174.94 108.1C175.14 108.553 175.24 109.047 175.24 109.58C175.24 110.14 175.14 110.64 174.94 111.08C174.74 111.52 174.42 111.9 173.98 112.22C173.54 112.54 172.967 112.787 172.26 112.96C171.554 113.147 170.694 113.24 169.68 113.24ZM169.68 111.24C170.28 111.24 170.774 111.2 171.16 111.12C171.56 111.053 171.874 110.947 172.1 110.8C172.34 110.653 172.507 110.48 172.6 110.28C172.694 110.08 172.74 109.847 172.74 109.58C172.74 109.327 172.694 109.093 172.6 108.88C172.507 108.667 172.34 108.493 172.1 108.36C171.874 108.213 171.56 108.1 171.16 108.02C170.774 107.94 170.28 107.9 169.68 107.9C168.467 107.9 167.647 108.053 167.22 108.36C166.807 108.653 166.6 109.06 166.6 109.58C166.6 110.1 166.807 110.507 167.22 110.8C167.634 111.093 168.454 111.24 169.68 111.24Z" fill="black"/>
<path d="M37.764 122.58H42.804V121.416H37.776V120.42H43.992V123.564H38.964V124.632C38.964 124.712 38.976 124.764 39 124.788C39.024 124.812 39.068 124.824 39.132 124.824H44.232V125.82H41.472V127.38H45.384V128.376H36.372V127.38H40.272V125.82H38.472C38 125.82 37.764 125.568 37.764 125.064V122.58ZM48.3518 124.056C48.1118 124.056 47.9398 124 47.8358 123.888C47.7398 123.768 47.6918 123.588 47.6918 123.348V120.048H48.8798V121.164H52.5638V120.048H53.7518V124.056H51.3038V124.956H55.2278V125.916H46.2158V124.956H50.1278V124.056H48.3518ZM50.7158 128.364C50.6038 128.572 50.4358 128.776 50.2118 128.976C49.9958 129.168 49.7438 129.344 49.4558 129.504C49.1678 129.672 48.8558 129.816 48.5198 129.936C48.1838 130.056 47.8438 130.144 47.4998 130.2L47.0678 129.324C48.1078 129.044 48.8758 128.712 49.3717 128.328C49.8758 127.936 50.1278 127.488 50.1278 126.984V126.552H51.3038V126.984C51.3038 127.488 51.5518 127.932 52.0478 128.316C52.5518 128.692 53.3238 129.02 54.3638 129.3L53.9318 130.176C53.5798 130.12 53.2358 130.032 52.8997 129.912C52.5718 129.792 52.2638 129.652 51.9758 129.492C51.6878 129.332 51.4318 129.156 51.2078 128.964C50.9918 128.772 50.8278 128.572 50.7158 128.364ZM52.5638 123.096V122.112H48.8798V122.94C48.8798 122.996 48.8918 123.036 48.9158 123.06C48.9398 123.084 48.9878 123.096 49.0598 123.096H52.5638ZM61.1355 130.248C60.5515 130.248 60.0555 130.2 59.6475 130.104C59.2395 130.016 58.9035 129.884 58.6395 129.708C58.3835 129.532 58.1955 129.32 58.0755 129.072C57.9635 128.832 57.9075 128.56 57.9075 128.256C57.9075 127.952 57.9635 127.68 58.0755 127.44C58.1955 127.192 58.3835 126.98 58.6395 126.804C58.9035 126.628 59.2395 126.496 59.6475 126.408C60.0555 126.312 60.5515 126.264 61.1355 126.264C61.7195 126.264 62.2155 126.312 62.6235 126.408C63.0315 126.496 63.3635 126.628 63.6195 126.804C63.8755 126.98 64.0635 127.192 64.1835 127.44C64.3035 127.68 64.3635 127.952 64.3635 128.256C64.3635 128.56 64.3035 128.836 64.1835 129.084C64.0635 129.332 63.8755 129.54 63.6195 129.708C63.3635 129.884 63.0315 130.016 62.6235 130.104C62.2155 130.2 61.7195 130.248 61.1355 130.248ZM56.4075 122.436V121.536H61.4235V122.436H59.5155V122.676C59.5155 122.836 59.5635 123.008 59.6595 123.192C59.7555 123.376 59.8955 123.56 60.0795 123.744C60.2635 123.928 60.4955 124.108 60.7755 124.284C61.0555 124.46 61.3755 124.62 61.7355 124.764L61.1475 125.616C60.7155 125.44 60.2955 125.212 59.8875 124.932C59.4795 124.644 59.1515 124.32 58.9035 123.96C58.6475 124.352 58.3115 124.716 57.8955 125.052C57.4795 125.38 57.0355 125.66 56.5635 125.892L55.9755 125.04C56.3595 124.872 56.6955 124.688 56.9835 124.488C57.2715 124.28 57.5115 124.072 57.7035 123.864C57.8955 123.648 58.0395 123.44 58.1355 123.24C58.2315 123.032 58.2795 122.844 58.2795 122.676V122.436H56.4075ZM64.2435 125.928H63.0315V123.864H61.3275V122.856H63.0315V119.904H64.2435V125.928ZM61.1355 129.3C61.5275 129.3 61.8515 129.276 62.1075 129.228C62.3715 129.188 62.5795 129.124 62.7315 129.036C62.8915 128.948 63.0035 128.84 63.0675 128.712C63.1315 128.576 63.1635 128.424 63.1635 128.256C63.1635 128.088 63.1315 127.94 63.0675 127.812C63.0035 127.684 62.8915 127.576 62.7315 127.488C62.5795 127.392 62.3715 127.324 62.1075 127.284C61.8515 127.236 61.5275 127.212 61.1355 127.212C60.7435 127.212 60.4155 127.236 60.1515 127.284C59.8955 127.324 59.6875 127.392 59.5275 127.488C59.3755 127.576 59.2675 127.684 59.2035 127.812C59.1395 127.94 59.1075 128.088 59.1075 128.256C59.1075 128.424 59.1395 128.576 59.2035 128.712C59.2675 128.84 59.3755 128.948 59.5275 129.036C59.6875 129.124 59.8955 129.188 60.1515 129.228C60.4155 129.276 60.7435 129.3 61.1355 129.3ZM57.3675 119.88H60.4635V120.876H57.3675V119.88ZM70.4033 123.072C70.2513 123.304 70.0553 123.54 69.8153 123.78C69.5753 124.012 69.3033 124.228 68.9993 124.428C68.7033 124.628 68.3873 124.808 68.0513 124.968C67.7233 125.12 67.3913 125.236 67.0553 125.316L66.5873 124.476C67.0593 124.332 67.4913 124.148 67.8833 123.924C68.2833 123.7 68.6233 123.456 68.9033 123.192C69.1913 122.92 69.4113 122.636 69.5633 122.34C69.7233 122.044 69.8033 121.752 69.8033 121.464V120.24H71.0033V121.464C71.0033 121.752 71.0793 122.044 71.2313 122.34C71.3913 122.636 71.6113 122.92 71.8913 123.192C72.1793 123.456 72.5193 123.7 72.9113 123.924C73.3113 124.148 73.7473 124.332 74.2193 124.476L73.7513 125.316C73.4153 125.236 73.0793 125.12 72.7433 124.968C72.4153 124.808 72.0993 124.628 71.7953 124.428C71.4993 124.228 71.2313 124.012 70.9913 123.78C70.7513 123.54 70.5553 123.304 70.4033 123.072ZM69.8033 125.04H71.0033V127.32H74.9153V128.316H65.9033V127.32H69.8033V125.04ZM82.731 119.904H83.931V130.08H82.731V119.904ZM76.503 126.672C77.247 126.288 77.835 125.952 78.267 125.664C78.707 125.368 79.039 125.096 79.263 124.848C79.495 124.592 79.643 124.344 79.707 124.104C79.779 123.864 79.815 123.604 79.815 123.324V121.524H76.539V120.528H81.063V123.24C81.063 123.72 81.003 124.14 80.883 124.5C80.763 124.86 80.551 125.204 80.247 125.532C79.951 125.86 79.543 126.188 79.023 126.516C78.503 126.844 77.843 127.212 77.043 127.62L76.503 126.672ZM92.2268 119.904H93.4268V123.18H94.8788V124.164H93.4268V130.08H92.2268V119.904ZM85.9388 126.684C86.6508 126.332 87.2268 126.004 87.6668 125.7C88.1068 125.396 88.4468 125.108 88.6868 124.836C88.9268 124.564 89.0868 124.3 89.1668 124.044C89.2548 123.78 89.2988 123.516 89.2988 123.252V121.524H86.0228V120.528H90.5468V123.204C90.5468 123.66 90.4788 124.072 90.3428 124.44C90.2148 124.808 89.9908 125.164 89.6708 125.508C89.3588 125.852 88.9428 126.196 88.4228 126.54C87.9028 126.876 87.2548 127.24 86.4788 127.632L85.9388 126.684ZM103.874 130.248C103.29 130.248 102.794 130.2 102.386 130.104C101.978 130.016 101.642 129.884 101.378 129.708C101.122 129.532 100.934 129.32 100.814 129.072C100.702 128.832 100.646 128.56 100.646 128.256C100.646 127.952 100.702 127.68 100.814 127.44C100.934 127.192 101.122 126.98 101.378 126.804C101.642 126.628 101.978 126.496 102.386 126.408C102.794 126.312 103.29 126.264 103.874 126.264C104.458 126.264 104.954 126.312 105.362 126.408C105.77 126.496 106.102 126.628 106.358 126.804C106.614 126.98 106.802 127.192 106.922 127.44C107.042 127.68 107.102 127.952 107.102 128.256C107.102 128.56 107.042 128.836 106.922 129.084C106.802 129.332 106.614 129.54 106.358 129.708C106.102 129.884 105.77 130.016 105.362 130.104C104.954 130.2 104.458 130.248 103.874 130.248ZM99.1458 122.436V121.536H104.162V122.436H102.254V122.676C102.254 122.836 102.302 123.008 102.398 123.192C102.494 123.376 102.634 123.56 102.818 123.744C103.002 123.928 103.234 124.108 103.514 124.284C103.794 124.46 104.114 124.62 104.474 124.764L103.886 125.616C103.454 125.44 103.034 125.212 102.626 124.932C102.218 124.644 101.89 124.32 101.642 123.96C101.386 124.352 101.05 124.716 100.634 125.052C100.218 125.38 99.7738 125.66 99.3018 125.892L98.7138 125.04C99.0978 124.872 99.4338 124.688 99.7218 124.488C100.01 124.28 100.25 124.072 100.442 123.864C100.634 123.648 100.778 123.44 100.874 123.24C100.97 123.032 101.018 122.844 101.018 122.676V122.436H99.1458ZM106.982 125.928H105.77V123.864H104.066V122.856H105.77V119.904H106.982V125.928ZM103.874 129.3C104.266 129.3 104.59 129.276 104.846 129.228C105.11 129.188 105.318 129.124 105.47 129.036C105.63 128.948 105.742 128.84 105.806 128.712C105.87 128.576 105.902 128.424 105.902 128.256C105.902 128.088 105.87 127.94 105.806 127.812C105.742 127.684 105.63 127.576 105.47 127.488C105.318 127.392 105.11 127.324 104.846 127.284C104.59 127.236 104.266 127.212 103.874 127.212C103.482 127.212 103.154 127.236 102.89 127.284C102.634 127.324 102.426 127.392 102.266 127.488C102.114 127.576 102.006 127.684 101.942 127.812C101.878 127.94 101.846 128.088 101.846 128.256C101.846 128.424 101.878 128.576 101.942 128.712C102.006 128.84 102.114 128.948 102.266 129.036C102.426 129.124 102.634 129.188 102.89 129.228C103.154 129.276 103.482 129.3 103.874 129.3ZM100.106 119.88H103.202V120.876H100.106V119.88ZM113.142 123.072C112.99 123.304 112.794 123.54 112.554 123.78C112.314 124.012 112.042 124.228 111.738 124.428C111.442 124.628 111.126 124.808 110.79 124.968C110.462 125.12 110.13 125.236 109.794 125.316L109.326 124.476C109.798 124.332 110.23 124.148 110.622 123.924C111.022 123.7 111.362 123.456 111.642 123.192C111.93 122.92 112.15 122.636 112.302 122.34C112.462 122.044 112.542 121.752 112.542 121.464V120.24H113.742V121.464C113.742 121.752 113.818 122.044 113.97 122.34C114.13 122.636 114.35 122.92 114.63 123.192C114.918 123.456 115.258 123.7 115.65 123.924C116.05 124.148 116.486 124.332 116.958 124.476L116.49 125.316C116.154 125.236 115.818 125.12 115.482 124.968C115.154 124.808 114.838 124.628 114.534 124.428C114.238 124.228 113.97 124.012 113.73 123.78C113.49 123.54 113.294 123.304 113.142 123.072ZM112.542 125.04H113.742V127.32H117.654V128.316H108.642V127.32H112.542V125.04ZM125.121 119.904H126.321V124.164H127.773V125.172H126.321V130.08H125.121V119.904ZM119.877 120.048H123.117V121.08H119.877V120.048ZM118.629 122.748V121.776H124.269V122.748H118.629ZM121.497 128.064C120.737 128.064 120.153 127.872 119.745 127.488C119.337 127.104 119.133 126.504 119.133 125.688C119.133 124.872 119.337 124.272 119.745 123.888C120.153 123.504 120.737 123.312 121.497 123.312C122.257 123.312 122.841 123.504 123.249 123.888C123.657 124.272 123.861 124.872 123.861 125.688C123.861 126.504 123.657 127.104 123.249 127.488C122.841 127.872 122.257 128.064 121.497 128.064ZM121.497 127.116C121.905 127.116 122.217 127 122.433 126.768C122.649 126.536 122.757 126.176 122.757 125.688C122.757 125.192 122.649 124.828 122.433 124.596C122.217 124.364 121.905 124.248 121.497 124.248C121.089 124.248 120.777 124.364 120.561 124.596C120.345 124.828 120.237 125.192 120.237 125.688C120.237 126.176 120.345 126.536 120.561 126.768C120.777 127 121.089 127.116 121.497 127.116ZM131.485 124.716C131.237 125.22 130.897 125.712 130.465 126.192C130.033 126.664 129.557 127.072 129.037 127.416L128.293 126.564C128.685 126.284 129.037 125.992 129.349 125.688C129.669 125.376 129.941 125.06 130.165 124.74C130.389 124.412 130.561 124.088 130.681 123.768C130.809 123.44 130.873 123.12 130.873 122.808V121.488H128.893V120.516H133.957V121.488H132.097V122.808C132.097 123.112 132.153 123.424 132.265 123.744C132.377 124.064 132.537 124.38 132.745 124.692C132.953 125.004 133.201 125.308 133.489 125.604C133.785 125.9 134.113 126.18 134.473 126.444L133.729 127.296C133.489 127.128 133.253 126.944 133.021 126.744C132.797 126.536 132.589 126.32 132.397 126.096C132.205 125.872 132.029 125.644 131.869 125.412C131.717 125.18 131.589 124.948 131.485 124.716ZM135.313 119.904H136.513V130.08H135.313V119.904ZM148.172 124.908V119.904H149.372V121.992H150.824V123H149.372V124.908H148.172ZM141.704 122.472C141.704 122.128 141.752 121.808 141.848 121.512C141.944 121.208 142.092 120.944 142.292 120.72C142.5 120.496 142.768 120.324 143.096 120.204C143.424 120.076 143.82 120.012 144.284 120.012C144.74 120.012 145.132 120.076 145.46 120.204C145.788 120.324 146.052 120.496 146.252 120.72C146.46 120.944 146.612 121.208 146.708 121.512C146.804 121.808 146.852 122.128 146.852 122.472C146.852 122.824 146.804 123.148 146.708 123.444C146.612 123.74 146.46 124 146.252 124.224C146.052 124.448 145.788 124.624 145.46 124.752C145.132 124.872 144.74 124.932 144.284 124.932C143.82 124.932 143.424 124.872 143.096 124.752C142.768 124.624 142.5 124.448 142.292 124.224C142.092 124 141.944 123.74 141.848 123.444C141.752 123.148 141.704 122.824 141.704 122.472ZM145.7 122.472C145.7 121.976 145.576 121.608 145.328 121.368C145.088 121.12 144.74 120.996 144.284 120.996C143.82 120.996 143.464 121.12 143.216 121.368C142.976 121.608 142.856 121.976 142.856 122.472C142.856 122.968 142.976 123.34 143.216 123.588C143.464 123.828 143.82 123.948 144.284 123.948C144.74 123.948 145.088 123.828 145.328 123.588C145.576 123.34 145.7 122.968 145.7 122.472ZM146.432 125.412H148.952V126.312H146.432V125.412ZM145.688 130.02H143.252C143.012 130.02 142.832 129.964 142.712 129.852C142.592 129.748 142.532 129.568 142.532 129.312V126.072H143.72V128.868C143.72 128.948 143.728 128.996 143.744 129.012C143.768 129.036 143.812 129.048 143.876 129.048H145.688V130.02ZM147.692 130.248C147.116 130.248 146.668 130.104 146.348 129.816C146.036 129.536 145.88 129.156 145.88 128.676C145.88 128.444 145.936 128.236 146.048 128.052C146.168 127.86 146.312 127.728 146.48 127.656H145.364V126.78H150.02V127.656H148.904C149.072 127.728 149.212 127.86 149.324 128.052C149.444 128.236 149.504 128.444 149.504 128.676C149.504 129.156 149.344 129.536 149.024 129.816C148.712 130.104 148.268 130.248 147.692 130.248ZM147.692 129.396C147.932 129.396 148.12 129.32 148.256 129.168C148.4 129.024 148.472 128.812 148.472 128.532C148.472 128.252 148.4 128.036 148.256 127.884C148.12 127.732 147.932 127.656 147.692 127.656C147.452 127.656 147.26 127.732 147.116 127.884C146.98 128.036 146.912 128.252 146.912 128.532C146.912 128.812 146.98 129.024 147.116 129.168C147.26 129.32 147.452 129.396 147.692 129.396ZM155.88 123.672C155.312 123.672 154.824 123.632 154.416 123.552C154.008 123.464 153.672 123.34 153.408 123.18C153.152 123.012 152.964 122.812 152.844 122.58C152.724 122.348 152.664 122.08 152.664 121.776C152.664 121.472 152.724 121.204 152.844 120.972C152.964 120.732 153.152 120.532 153.408 120.372C153.672 120.204 154.008 120.08 154.416 120C154.824 119.912 155.312 119.868 155.88 119.868C157.016 119.868 157.836 120.036 158.34 120.372C158.844 120.7 159.096 121.168 159.096 121.776C159.096 122.376 158.844 122.844 158.34 123.18C157.836 123.508 157.016 123.672 155.88 123.672ZM155.88 122.772C156.584 122.772 157.1 122.688 157.428 122.52C157.764 122.344 157.932 122.092 157.932 121.764C157.932 121.444 157.764 121.2 157.428 121.032C157.1 120.856 156.584 120.768 155.88 120.768C155.176 120.768 154.656 120.856 154.32 121.032C153.992 121.2 153.828 121.444 153.828 121.764C153.828 122.092 153.992 122.344 154.32 122.52C154.656 122.688 155.176 122.772 155.88 122.772ZM159.024 128.436H153.936V129.144C153.936 129.208 153.944 129.248 153.96 129.264C153.976 129.28 154.012 129.288 154.068 129.288H159.264V130.2H153.348C153.124 130.2 152.964 130.148 152.868 130.044C152.78 129.94 152.736 129.784 152.736 129.576V127.584H157.836V126.792H152.76V125.88H159.024V128.436ZM151.38 125.196V124.236H160.392V125.196H151.38ZM164.815 122.58C164.815 122.228 164.863 121.904 164.959 121.608C165.055 121.304 165.203 121.044 165.403 120.828C165.611 120.604 165.879 120.432 166.207 120.312C166.535 120.184 166.931 120.12 167.395 120.12C167.923 120.12 168.363 120.204 168.715 120.372C169.067 120.532 169.339 120.752 169.531 121.032H171.571V119.904H172.771V125.736H171.571V124.368H169.327C169.119 124.576 168.859 124.74 168.547 124.86C168.235 124.98 167.851 125.04 167.395 125.04C166.931 125.04 166.535 124.98 166.207 124.86C165.879 124.732 165.611 124.56 165.403 124.344C165.203 124.12 165.055 123.86 164.959 123.564C164.863 123.26 164.815 122.932 164.815 122.58ZM169.663 130.248C169.079 130.248 168.583 130.196 168.175 130.092C167.767 129.988 167.431 129.84 167.167 129.648C166.911 129.456 166.723 129.232 166.603 128.976C166.491 128.712 166.435 128.424 166.435 128.112C166.435 127.8 166.491 127.516 166.603 127.26C166.723 126.996 166.911 126.768 167.167 126.576C167.431 126.384 167.767 126.236 168.175 126.132C168.583 126.028 169.079 125.976 169.663 125.976C170.247 125.976 170.743 126.028 171.151 126.132C171.559 126.236 171.891 126.384 172.147 126.576C172.403 126.768 172.591 126.996 172.711 127.26C172.831 127.516 172.891 127.8 172.891 128.112C172.891 128.424 172.831 128.712 172.711 128.976C172.591 129.232 172.403 129.456 172.147 129.648C171.891 129.84 171.559 129.988 171.151 130.092C170.743 130.196 170.247 130.248 169.663 130.248ZM169.663 129.3C170.055 129.3 170.379 129.272 170.635 129.216C170.899 129.16 171.107 129.08 171.259 128.976C171.419 128.872 171.531 128.748 171.595 128.604C171.659 128.452 171.691 128.288 171.691 128.112C171.691 127.936 171.659 127.776 171.595 127.632C171.531 127.48 171.419 127.352 171.259 127.248C171.107 127.144 170.899 127.064 170.635 127.008C170.379 126.952 170.055 126.924 169.663 126.924C169.271 126.924 168.943 126.952 168.679 127.008C168.423 127.064 168.215 127.144 168.055 127.248C167.903 127.352 167.795 127.48 167.731 127.632C167.667 127.776 167.635 127.936 167.635 128.112C167.635 128.288 167.667 128.452 167.731 128.604C167.795 128.748 167.903 128.872 168.055 128.976C168.215 129.08 168.423 129.16 168.679 129.216C168.943 129.272 169.271 129.3 169.663 129.3ZM168.823 122.58C168.823 122.076 168.699 121.704 168.451 121.464C168.203 121.224 167.851 121.104 167.395 121.104C166.931 121.104 166.575 121.224 166.327 121.464C166.087 121.704 165.967 122.076 165.967 122.58C165.967 123.084 166.087 123.456 166.327 123.696C166.575 123.936 166.931 124.056 167.395 124.056C167.851 124.056 168.203 123.936 168.451 123.696C168.699 123.456 168.823 123.084 168.823 122.58ZM169.951 122.58C169.951 122.852 169.919 123.116 169.855 123.372H171.571V122.028H169.903C169.935 122.188 169.951 122.372 169.951 122.58ZM181.415 119.904H182.615V125.652H181.415V124.344H179.195C178.987 124.56 178.723 124.732 178.403 124.86C178.083 124.98 177.695 125.04 177.239 125.04C176.775 125.04 176.379 124.98 176.051 124.86C175.723 124.732 175.455 124.56 175.247 124.344C175.047 124.12 174.899 123.86 174.803 123.564C174.707 123.26 174.659 122.932 174.659 122.58C174.659 122.228 174.707 121.904 174.803 121.608C174.899 121.304 175.047 121.044 175.247 120.828C175.455 120.604 175.723 120.432 176.051 120.312C176.379 120.184 176.775 120.12 177.239 120.12C177.767 120.12 178.207 120.204 178.559 120.372C178.911 120.532 179.183 120.752 179.375 121.032H181.415V119.904ZM182.615 130.2H181.415V127.32H176.279V126.336H182.615V130.2ZM178.667 122.58C178.667 122.076 178.543 121.704 178.295 121.464C178.047 121.224 177.695 121.104 177.239 121.104C176.775 121.104 176.419 121.224 176.171 121.464C175.931 121.704 175.811 122.076 175.811 122.58C175.811 123.084 175.931 123.456 176.171 123.696C176.419 123.936 176.775 124.056 177.239 124.056C177.695 124.056 178.047 123.936 178.295 123.696C178.543 123.456 178.667 123.084 178.667 122.58ZM179.795 122.58C179.795 122.716 179.787 122.848 179.771 122.976C179.755 123.104 179.735 123.228 179.711 123.348H181.415V122.028H179.747C179.779 122.188 179.795 122.372 179.795 122.58ZM188.774 123.672C188.206 123.672 187.718 123.632 187.31 123.552C186.902 123.464 186.566 123.34 186.302 123.18C186.046 123.012 185.858 122.812 185.738 122.58C185.618 122.348 185.558 122.08 185.558 121.776C185.558 121.472 185.618 121.204 185.738 120.972C185.858 120.732 186.046 120.532 186.302 120.372C186.566 120.204 186.902 120.08 187.31 120C187.718 119.912 188.206 119.868 188.774 119.868C189.91 119.868 190.73 120.036 191.234 120.372C191.738 120.7 191.99 121.168 191.99 121.776C191.99 122.376 191.738 122.844 191.234 123.18C190.73 123.508 189.91 123.672 188.774 123.672ZM188.774 122.772C189.478 122.772 189.994 122.688 190.322 122.52C190.658 122.344 190.826 122.092 190.826 121.764C190.826 121.444 190.658 121.2 190.322 121.032C189.994 120.856 189.478 120.768 188.774 120.768C188.07 120.768 187.55 120.856 187.214 121.032C186.886 121.2 186.722 121.444 186.722 121.764C186.722 122.092 186.886 122.344 187.214 122.52C187.55 122.688 188.07 122.772 188.774 122.772ZM191.918 128.436H186.83V129.144C186.83 129.208 186.838 129.248 186.854 129.264C186.87 129.28 186.906 129.288 186.962 129.288H192.158V130.2H186.242C186.018 130.2 185.858 130.148 185.762 130.044C185.674 129.94 185.63 129.784 185.63 129.576V127.584H190.73V126.792H185.654V125.88H191.918V128.436ZM184.274 125.196V124.236H193.286V125.196H184.274ZM199.473 127.404H204.465V126.576H199.533V125.652H205.665V128.292H200.673V129.108C200.673 129.18 200.681 129.224 200.697 129.24C200.713 129.256 200.753 129.264 200.817 129.264H206.025V130.2H200.133C199.885 130.2 199.713 130.144 199.617 130.032C199.521 129.92 199.473 129.756 199.473 129.54V127.404ZM205.665 124.968H204.453V122.532H202.485V121.524H204.453V119.904H205.665V124.968ZM200.565 122.868C200.333 123.316 199.997 123.74 199.557 124.14C199.117 124.532 198.633 124.868 198.105 125.148L197.517 124.284C197.885 124.068 198.221 123.832 198.525 123.576C198.829 123.32 199.085 123.056 199.293 122.784C199.501 122.504 199.661 122.22 199.773 121.932C199.893 121.636 199.953 121.348 199.953 121.068V120.036H201.165V121.068C201.165 121.38 201.221 121.68 201.333 121.968C201.453 122.256 201.617 122.528 201.825 122.784C202.041 123.032 202.293 123.268 202.581 123.492C202.869 123.716 203.185 123.92 203.529 124.104L202.941 124.968C202.693 124.856 202.449 124.72 202.209 124.56C201.969 124.4 201.745 124.228 201.537 124.044C201.329 123.86 201.141 123.668 200.973 123.468C200.805 123.268 200.669 123.068 200.565 122.868ZM212.401 130.248C211.817 130.248 211.321 130.192 210.913 130.08C210.505 129.976 210.169 129.828 209.905 129.636C209.649 129.452 209.461 129.232 209.341 128.976C209.229 128.712 209.173 128.424 209.173 128.112C209.173 127.8 209.229 127.516 209.341 127.26C209.461 126.996 209.649 126.772 209.905 126.588C210.169 126.396 210.505 126.248 210.913 126.144C211.321 126.032 211.817 125.976 212.401 125.976C212.985 125.976 213.481 126.032 213.889 126.144C214.297 126.248 214.629 126.396 214.885 126.588C215.141 126.772 215.329 126.996 215.449 127.26C215.569 127.516 215.629 127.8 215.629 128.112C215.629 128.424 215.569 128.712 215.449 128.976C215.329 129.232 215.141 129.452 214.885 129.636C214.629 129.828 214.297 129.976 213.889 130.08C213.481 130.192 212.985 130.248 212.401 130.248ZM210.289 123.216C210.065 123.664 209.733 124.08 209.293 124.464C208.853 124.848 208.373 125.176 207.853 125.448L207.241 124.572C207.609 124.372 207.941 124.152 208.237 123.912C208.541 123.672 208.797 123.424 209.005 123.168C209.221 122.904 209.385 122.636 209.497 122.364C209.617 122.084 209.677 121.808 209.677 121.536V121.332H207.697V120.372H212.773V121.332H210.889V121.536C210.889 121.8 210.945 122.068 211.057 122.34C211.169 122.612 211.321 122.876 211.513 123.132C211.713 123.38 211.949 123.616 212.221 123.84C212.501 124.064 212.809 124.268 213.145 124.452L212.533 125.328C212.309 125.216 212.081 125.08 211.849 124.92C211.625 124.752 211.413 124.576 211.213 124.392C211.013 124.2 210.833 124.004 210.673 123.804C210.513 123.596 210.385 123.4 210.289 123.216ZM215.509 125.736H214.297V123.132H212.449V122.124H214.297V119.904H215.509V125.736ZM212.401 129.3C212.793 129.3 213.117 129.272 213.373 129.216C213.637 129.16 213.845 129.08 213.997 128.976C214.157 128.872 214.269 128.748 214.333 128.604C214.397 128.452 214.429 128.288 214.429 128.112C214.429 127.936 214.397 127.776 214.333 127.632C214.269 127.48 214.157 127.352 213.997 127.248C213.845 127.144 213.637 127.064 213.373 127.008C213.117 126.952 212.793 126.924 212.401 126.924C212.009 126.924 211.681 126.952 211.417 127.008C211.161 127.064 210.953 127.144 210.793 127.248C210.641 127.352 210.533 127.48 210.469 127.632C210.405 127.776 210.373 127.936 210.373 128.112C210.373 128.288 210.405 128.452 210.469 128.604C210.533 128.748 210.641 128.872 210.793 128.976C210.953 129.08 211.161 129.16 211.417 129.216C211.681 129.272 212.009 129.3 212.401 129.3ZM223.805 119.904H225.005V124.164H226.457V125.172H225.005V130.08H223.805V119.904ZM218.561 120.048H221.801V121.08H218.561V120.048ZM217.313 122.748V121.776H222.953V122.748H217.313ZM220.181 128.064C219.421 128.064 218.837 127.872 218.429 127.488C218.021 127.104 217.817 126.504 217.817 125.688C217.817 124.872 218.021 124.272 218.429 123.888C218.837 123.504 219.421 123.312 220.181 123.312C220.941 123.312 221.525 123.504 221.933 123.888C222.341 124.272 222.545 124.872 222.545 125.688C222.545 126.504 222.341 127.104 221.933 127.488C221.525 127.872 220.941 128.064 220.181 128.064ZM220.181 127.116C220.589 127.116 220.901 127 221.117 126.768C221.333 126.536 221.441 126.176 221.441 125.688C221.441 125.192 221.333 124.828 221.117 124.596C220.901 124.364 220.589 124.248 220.181 124.248C219.773 124.248 219.461 124.364 219.245 124.596C219.029 124.828 218.921 125.192 218.921 125.688C218.921 126.176 219.029 126.536 219.245 126.768C219.461 127 219.773 127.116 220.181 127.116ZM227.565 123.504H230.625V121.392H227.625V120.468H231.813V124.404H228.753V126.432C228.753 126.52 228.769 126.576 228.801 126.6C228.833 126.624 228.889 126.636 228.969 126.636H230.421C230.909 126.636 231.329 126.612 231.681 126.564C232.041 126.516 232.357 126.44 232.629 126.336L232.737 127.152C232.481 127.296 232.141 127.404 231.717 127.476C231.293 127.54 230.837 127.572 230.349 127.572H228.465C228.145 127.572 227.913 127.516 227.769 127.404C227.633 127.284 227.565 127.044 227.565 126.684V123.504ZM232.329 124.644H233.997V122.952H232.365V121.956H233.997V119.904H235.197V130.08H233.997V125.64H232.329V124.644ZM245.04 127.116H243.828V124.404H242.1V125.292H237.912C237.656 125.292 237.472 125.24 237.36 125.136C237.256 125.024 237.204 124.832 237.204 124.56V120.492H242.1V121.176H243.828V119.904H245.04V127.116ZM238.824 126.504H240.024V128.856C240.024 128.944 240.032 128.996 240.048 129.012C240.072 129.036 240.124 129.048 240.204 129.048H245.28V130.02H239.508C239.052 130.02 238.824 129.796 238.824 129.348V126.504ZM240.912 121.464H238.392V124.152C238.392 124.208 238.404 124.252 238.428 124.284C238.452 124.308 238.5 124.32 238.572 124.32H240.912V121.464ZM243.828 122.172H242.1V123.408H243.828V122.172ZM257.587 121.692C257.587 122.148 257.547 122.564 257.467 122.94C257.387 123.316 257.263 123.684 257.095 124.044H259.075V125.028H250.063V124.044H255.979C256.131 123.676 256.239 123.312 256.303 122.952C256.367 122.592 256.399 122.232 256.399 121.872V121.14H251.479V120.156H257.587V121.692ZM252.103 130.08C251.871 130.08 251.699 130.028 251.587 129.924C251.475 129.82 251.419 129.648 251.419 129.408V126.108H257.719V130.08H252.103ZM256.519 129.108V127.068H252.619V128.94C252.619 129.052 252.683 129.108 252.811 129.108H256.519ZM263.063 124.716C262.815 125.22 262.475 125.712 262.043 126.192C261.611 126.664 261.135 127.072 260.615 127.416L259.871 126.564C260.263 126.284 260.615 125.992 260.927 125.688C261.247 125.376 261.519 125.06 261.743 124.74C261.967 124.412 262.139 124.088 262.259 123.768C262.387 123.44 262.451 123.12 262.451 122.808V121.488H260.471V120.516H265.535V121.488H263.675V122.808C263.675 123.112 263.731 123.424 263.843 123.744C263.955 124.064 264.115 124.38 264.323 124.692C264.531 125.004 264.779 125.308 265.067 125.604C265.363 125.9 265.691 126.18 266.051 126.444L265.307 127.296C265.067 127.128 264.831 126.944 264.599 126.744C264.375 126.536 264.167 126.32 263.975 126.096C263.783 125.872 263.607 125.644 263.447 125.412C263.295 125.18 263.167 124.948 263.063 124.716ZM266.891 119.904H268.091V130.08H266.891V119.904ZM277.935 127.236H276.723V123.036H274.755V122.028H276.723V119.904H277.935V127.236ZM269.787 124.968C270.155 124.752 270.491 124.516 270.795 124.26C271.099 124.004 271.355 123.74 271.563 123.468C271.771 123.188 271.931 122.904 272.043 122.616C272.163 122.32 272.223 122.032 272.223 121.752V120.192H273.435V121.752C273.435 122.032 273.495 122.316 273.615 122.604C273.735 122.884 273.899 123.156 274.107 123.42C274.315 123.684 274.563 123.936 274.851 124.176C275.147 124.416 275.467 124.636 275.811 124.836L275.223 125.676C274.967 125.548 274.719 125.4 274.479 125.232C274.239 125.064 274.015 124.888 273.807 124.704C273.599 124.52 273.411 124.328 273.243 124.128C273.075 123.928 272.935 123.732 272.823 123.54C272.591 123.988 272.255 124.408 271.815 124.8C271.375 125.192 270.895 125.528 270.375 125.808L269.787 124.968ZM271.719 126.624H272.919V128.856C272.919 128.944 272.927 128.996 272.943 129.012C272.967 129.036 273.019 129.048 273.099 129.048H278.175V130.02H272.403C271.947 130.02 271.719 129.796 271.719 129.348V126.624ZM284.095 123.672C283.527 123.672 283.039 123.632 282.631 123.552C282.223 123.464 281.887 123.34 281.623 123.18C281.367 123.012 281.179 122.812 281.059 122.58C280.939 122.348 280.879 122.08 280.879 121.776C280.879 121.472 280.939 121.204 281.059 120.972C281.179 120.732 281.367 120.532 281.623 120.372C281.887 120.204 282.223 120.08 282.631 120C283.039 119.912 283.527 119.868 284.095 119.868C285.231 119.868 286.051 120.036 286.555 120.372C287.059 120.7 287.311 121.168 287.311 121.776C287.311 122.376 287.059 122.844 286.555 123.18C286.051 123.508 285.231 123.672 284.095 123.672ZM284.095 122.772C284.799 122.772 285.315 122.688 285.643 122.52C285.979 122.344 286.147 122.092 286.147 121.764C286.147 121.444 285.979 121.2 285.643 121.032C285.315 120.856 284.799 120.768 284.095 120.768C283.391 120.768 282.871 120.856 282.535 121.032C282.207 121.2 282.043 121.444 282.043 121.764C282.043 122.092 282.207 122.344 282.535 122.52C282.871 122.688 283.391 122.772 284.095 122.772ZM287.239 128.436H282.151V129.144C282.151 129.208 282.159 129.248 282.175 129.264C282.191 129.28 282.227 129.288 282.283 129.288H287.479V130.2H281.563C281.339 130.2 281.179 130.148 281.083 130.044C280.995 129.94 280.951 129.784 280.951 129.576V127.584H286.051V126.792H280.975V125.88H287.239V128.436ZM279.595 125.196V124.236H288.607V125.196H279.595ZM300.326 121.764C300.326 122.22 300.286 122.64 300.206 123.024C300.126 123.408 300.002 123.78 299.834 124.14H301.814V125.124H292.802V124.14H298.718C298.87 123.772 298.978 123.404 299.042 123.036C299.106 122.668 299.138 122.304 299.138 121.944V121.14H294.218V120.156H300.326V121.764ZM297.302 128.16C297.19 128.4 297.022 128.628 296.798 128.844C296.582 129.06 296.33 129.256 296.042 129.432C295.754 129.608 295.442 129.76 295.106 129.888C294.77 130.024 294.43 130.12 294.086 130.176L293.654 129.3C294.694 129.02 295.462 128.66 295.958 128.22C296.462 127.78 296.714 127.3 296.714 126.78V126.096H297.89V126.78C297.89 127.3 298.138 127.78 298.634 128.22C299.138 128.66 299.91 129.02 300.95 129.3L300.518 130.176C300.166 130.12 299.822 130.024 299.486 129.888C299.158 129.76 298.85 129.608 298.562 129.432C298.274 129.256 298.018 129.06 297.794 128.844C297.578 128.628 297.414 128.4 297.302 128.16ZM303.281 126.672C304.025 126.288 304.613 125.952 305.045 125.664C305.485 125.368 305.821 125.096 306.053 124.848C306.285 124.592 306.433 124.344 306.497 124.104C306.569 123.864 306.605 123.604 306.605 123.324V121.524H303.317V120.528H307.841V123.132H309.629V119.904H310.829V130.08H309.629V124.152H307.757C307.685 124.48 307.565 124.784 307.397 125.064C307.229 125.336 306.989 125.608 306.677 125.88C306.365 126.144 305.973 126.416 305.501 126.696C305.037 126.976 304.477 127.284 303.821 127.62L303.281 126.672ZM319.125 126.768C318.829 126.936 318.461 127.064 318.021 127.152C317.589 127.232 317.121 127.272 316.617 127.272H313.821C313.549 127.272 313.349 127.216 313.221 127.104C313.101 126.984 313.041 126.768 313.041 126.456V120.468H314.241V126.06C314.241 126.164 314.253 126.228 314.277 126.252C314.309 126.276 314.373 126.288 314.469 126.288H317.085C317.493 126.288 317.873 126.248 318.225 126.168C318.577 126.088 318.877 125.988 319.125 125.868V119.904H320.325V123.252H321.777V124.248H320.325V130.08H319.125V126.768ZM43.008 133.904H44.208V137.36H45.66V138.368H44.208V144.08H43.008V133.904ZM39.348 138.788C39.1 139.292 38.756 139.784 38.316 140.264C37.876 140.736 37.396 141.144 36.876 141.488L36.156 140.696C36.548 140.416 36.9 140.124 37.212 139.82C37.532 139.508 37.804 139.192 38.028 138.872C38.252 138.544 38.424 138.22 38.544 137.9C38.672 137.572 38.736 137.252 38.736 136.94V134.36H39.96V136.94C39.96 137.54 40.18 138.156 40.62 138.788C41.06 139.42 41.66 140.008 42.42 140.552L41.76 141.368C41.512 141.208 41.268 141.028 41.028 140.828C40.796 140.62 40.576 140.404 40.368 140.18C40.16 139.956 39.968 139.728 39.792 139.496C39.624 139.256 39.476 139.02 39.348 138.788ZM54.0518 144.2H52.8518V141.32H47.7158V140.336H54.0518V144.2ZM55.5038 137.204H54.0518V139.652H52.8518V133.904H54.0518V136.244H55.5038V137.204ZM51.2798 135.824C51.2798 136.272 51.1958 136.672 51.0278 137.024C50.8598 137.368 50.5958 137.696 50.2358 138.008C49.8758 138.312 49.4158 138.608 48.8558 138.896C48.3038 139.176 47.6438 139.472 46.8758 139.784L46.3838 138.86C47.5918 138.412 48.5078 137.96 49.1318 137.504C49.7558 137.048 50.0678 136.528 50.0678 135.944V135.404H46.6838V134.432H51.2798V135.824ZM61.1355 144.248C60.5515 144.248 60.0555 144.2 59.6475 144.104C59.2395 144.008 58.9035 143.872 58.6395 143.696C58.3835 143.528 58.1955 143.32 58.0755 143.072C57.9635 142.832 57.9075 142.56 57.9075 142.256C57.9075 141.96 57.9635 141.688 58.0755 141.44C58.1955 141.192 58.3835 140.984 58.6395 140.816C58.9035 140.64 59.2395 140.504 59.6475 140.408C60.0555 140.312 60.5515 140.264 61.1355 140.264C61.7195 140.264 62.2155 140.312 62.6235 140.408C63.0315 140.504 63.3635 140.64 63.6195 140.816C63.8755 140.984 64.0635 141.192 64.1835 141.44C64.3035 141.688 64.3635 141.96 64.3635 142.256C64.3635 142.56 64.3035 142.832 64.1835 143.072C64.0635 143.32 63.8755 143.528 63.6195 143.696C63.3635 143.872 63.0315 144.008 62.6235 144.104C62.2155 144.2 61.7195 144.248 61.1355 144.248ZM58.9275 139.712C58.2395 139.712 57.6915 139.548 57.2835 139.22C56.8755 138.884 56.6715 138.392 56.6715 137.744C56.6715 137.488 56.7195 137.252 56.8155 137.036C56.9115 136.82 57.0395 136.656 57.1995 136.544H56.0595V135.572H61.7355V136.544H60.6555C60.8155 136.656 60.9435 136.82 61.0395 137.036C61.1355 137.252 61.1835 137.488 61.1835 137.744C61.1835 138.384 60.9755 138.872 60.5595 139.208C60.1435 139.544 59.5995 139.712 58.9275 139.712ZM63.0555 133.904H64.2435V139.952H63.0555V139.196H61.7355V138.2H63.0555V137.384H61.9155V136.388H63.0555V133.904ZM61.1355 143.3C61.5275 143.3 61.8515 143.276 62.1075 143.228C62.3715 143.188 62.5795 143.124 62.7315 143.036C62.8915 142.956 63.0035 142.852 63.0675 142.724C63.1315 142.588 63.1635 142.432 63.1635 142.256C63.1635 142.08 63.1315 141.928 63.0675 141.8C63.0035 141.672 62.8915 141.564 62.7315 141.476C62.5795 141.388 62.3715 141.324 62.1075 141.284C61.8515 141.236 61.5275 141.212 61.1355 141.212C60.7435 141.212 60.4155 141.236 60.1515 141.284C59.8955 141.324 59.6875 141.388 59.5275 141.476C59.3755 141.564 59.2675 141.672 59.2035 141.8C59.1395 141.928 59.1075 142.08 59.1075 142.256C59.1075 142.432 59.1395 142.588 59.2035 142.724C59.2675 142.852 59.3755 142.956 59.5275 143.036C59.6875 143.124 59.8955 143.188 60.1515 143.228C60.4155 143.276 60.7435 143.3 61.1355 143.3ZM58.9275 136.532C58.5915 136.532 58.3195 136.632 58.1115 136.832C57.9035 137.024 57.7995 137.308 57.7995 137.684C57.7995 138.052 57.9035 138.328 58.1115 138.512C58.3195 138.696 58.5915 138.788 58.9275 138.788C59.2635 138.788 59.5355 138.696 59.7435 138.512C59.9515 138.328 60.0555 138.052 60.0555 137.684C60.0555 137.308 59.9515 137.024 59.7435 136.832C59.5355 136.632 59.2635 136.532 58.9275 136.532ZM57.4035 133.88H60.4395V134.84H57.4035V133.88ZM74.9153 141.26V142.256H65.9033V141.26H74.9153ZM70.4033 138.644C71.0833 138.644 71.5913 138.488 71.9273 138.176C72.2633 137.856 72.4313 137.432 72.4313 136.904C72.4313 136.376 72.2633 135.956 71.9273 135.644C71.5913 135.324 71.0833 135.164 70.4033 135.164C69.7233 135.164 69.2153 135.324 68.8793 135.644C68.5513 135.956 68.3873 136.376 68.3873 136.904C68.3873 137.432 68.5513 137.856 68.8793 138.176C69.2153 138.488 69.7233 138.644 70.4033 138.644ZM70.4033 139.664C69.8513 139.664 69.3753 139.596 68.9753 139.46C68.5753 139.324 68.2433 139.136 67.9793 138.896C67.7153 138.648 67.5193 138.356 67.3913 138.02C67.2633 137.684 67.1993 137.316 67.1993 136.916C67.1993 136.516 67.2633 136.148 67.3913 135.812C67.5193 135.468 67.7153 135.176 67.9793 134.936C68.2433 134.688 68.5753 134.496 68.9753 134.36C69.3753 134.216 69.8513 134.144 70.4033 134.144C70.9553 134.144 71.4313 134.216 71.8313 134.36C72.2393 134.496 72.5753 134.688 72.8393 134.936C73.1033 135.176 73.2993 135.468 73.4273 135.812C73.5553 136.148 73.6193 136.516 73.6193 136.916C73.6193 137.316 73.5553 137.684 73.4273 138.02C73.2993 138.348 73.1033 138.636 72.8393 138.884C72.5753 139.132 72.2393 139.324 71.8313 139.46C71.4313 139.596 70.9553 139.664 70.4033 139.664ZM77.139 136.58H82.179V135.416H77.151V134.42H83.367V137.564H78.339V138.632C78.339 138.712 78.351 138.764 78.375 138.788C78.399 138.812 78.443 138.824 78.507 138.824H83.607V139.82H80.847V141.38H84.759V142.376H75.747V141.38H79.647V139.82H77.847C77.375 139.82 77.139 139.568 77.139 139.064V136.58ZM97.966 141.32V142.316H88.954V141.32H91.366V139.316H89.902V138.356H91.318V135.464H90.022V134.48H96.886V135.464H95.59V138.356H97.006V139.316H95.554V141.32H97.966ZM94.438 135.464H92.47V138.356H94.438V135.464ZM92.566 141.32H94.354V139.316H92.566V141.32ZM105.782 133.904H106.982V144.08H105.782V133.904ZM101.894 138.788C101.646 139.292 101.302 139.784 100.862 140.264C100.422 140.736 99.9418 141.144 99.4218 141.488L98.7018 140.696C99.0938 140.416 99.4458 140.124 99.7578 139.82C100.078 139.508 100.35 139.192 100.574 138.872C100.798 138.544 100.97 138.22 101.09 137.9C101.218 137.572 101.282 137.252 101.282 136.94V134.36H102.506V136.94C102.506 137.244 102.562 137.556 102.674 137.876C102.794 138.196 102.962 138.512 103.178 138.824C103.394 139.136 103.654 139.44 103.958 139.736C104.262 140.032 104.606 140.308 104.99 140.564L104.33 141.38C104.082 141.22 103.834 141.04 103.586 140.84C103.346 140.632 103.118 140.416 102.902 140.192C102.694 139.96 102.502 139.728 102.326 139.496C102.15 139.256 102.006 139.02 101.894 138.788ZM108.678 135.836H113.538V136.832H108.678V135.836ZM109.722 135.248V134.192H112.59V135.248H109.722ZM114.018 134.036H115.098V137.732H116.058V133.904H117.138V144.08H116.058V138.728H115.098V143.744H114.018V134.036ZM111.186 141.896C110.826 141.896 110.514 141.84 110.25 141.728C109.986 141.608 109.766 141.444 109.59 141.236C109.422 141.028 109.294 140.78 109.206 140.492C109.126 140.204 109.086 139.888 109.086 139.544C109.086 139.2 109.126 138.884 109.206 138.596C109.286 138.308 109.41 138.06 109.578 137.852C109.754 137.644 109.974 137.484 110.238 137.372C110.502 137.252 110.814 137.192 111.174 137.192C111.542 137.192 111.858 137.252 112.122 137.372C112.394 137.484 112.614 137.644 112.782 137.852C112.958 138.06 113.086 138.308 113.166 138.596C113.246 138.884 113.286 139.2 113.286 139.544C113.286 139.888 113.246 140.204 113.166 140.492C113.086 140.78 112.958 141.028 112.782 141.236C112.614 141.444 112.398 141.608 112.134 141.728C111.87 141.84 111.554 141.896 111.186 141.896ZM111.186 140.96C111.546 140.96 111.806 140.832 111.966 140.576C112.126 140.32 112.206 139.976 112.206 139.544C112.206 139.112 112.126 138.768 111.966 138.512C111.806 138.256 111.546 138.128 111.186 138.128C110.826 138.128 110.566 138.256 110.406 138.512C110.246 138.768 110.166 139.112 110.166 139.544C110.166 139.976 110.246 140.32 110.406 140.576C110.566 140.832 110.826 140.96 111.186 140.96ZM123.009 136.688C122.857 136.92 122.661 137.14 122.421 137.348C122.189 137.556 121.925 137.748 121.629 137.924C121.333 138.092 121.021 138.244 120.693 138.38C120.365 138.508 120.033 138.612 119.697 138.692L119.181 137.792C119.645 137.656 120.069 137.492 120.453 137.3C120.845 137.108 121.181 136.9 121.461 136.676C121.741 136.452 121.965 136.216 122.133 135.968C122.301 135.72 122.393 135.472 122.409 135.224H119.745V134.252H126.237V135.224H123.609C123.625 135.472 123.717 135.72 123.885 135.968C124.053 136.216 124.277 136.452 124.557 136.676C124.837 136.9 125.169 137.108 125.553 137.3C125.945 137.492 126.373 137.656 126.837 137.792L126.321 138.692C125.985 138.612 125.653 138.508 125.325 138.38C124.997 138.244 124.685 138.092 124.389 137.924C124.093 137.748 123.825 137.556 123.585 137.348C123.353 137.14 123.161 136.92 123.009 136.688ZM127.497 140.516H123.585V144.08H122.385V140.516H118.485V139.544H127.497V140.516ZM133.825 137.924H132.313V136.928H133.825V134.036H134.953V143.744H133.825V137.924ZM135.697 133.904H136.825V144.08H135.697V133.904ZM130.717 139.16C130.629 139.344 130.513 139.544 130.369 139.76C130.233 139.968 130.077 140.176 129.901 140.384C129.733 140.592 129.549 140.796 129.349 140.996C129.157 141.188 128.965 141.356 128.773 141.5L128.101 140.66C128.381 140.436 128.645 140.192 128.893 139.928C129.141 139.664 129.357 139.384 129.541 139.088C129.725 138.792 129.869 138.488 129.973 138.176C130.085 137.856 130.141 137.536 130.141 137.216V134.444H131.293V137.216C131.293 137.536 131.345 137.848 131.449 138.152C131.561 138.456 131.709 138.752 131.893 139.04C132.077 139.32 132.289 139.584 132.529 139.832C132.777 140.08 133.037 140.308 133.309 140.516L132.637 141.356C132.453 141.228 132.261 141.072 132.061 140.888C131.869 140.696 131.685 140.5 131.509 140.3C131.333 140.1 131.173 139.9 131.029 139.7C130.893 139.5 130.789 139.32 130.717 139.16ZM147.185 141.32V142.316H138.173V141.32H140.477V139.076C140.133 138.836 139.877 138.532 139.709 138.164C139.549 137.796 139.469 137.38 139.469 136.916C139.469 136.508 139.533 136.136 139.661 135.8C139.789 135.456 139.985 135.164 140.249 134.924C140.513 134.676 140.845 134.484 141.245 134.348C141.645 134.212 142.121 134.144 142.673 134.144C143.225 134.144 143.701 134.212 144.101 134.348C144.509 134.484 144.845 134.676 145.109 134.924C145.373 135.164 145.569 135.456 145.697 135.8C145.825 136.136 145.889 136.508 145.889 136.916C145.889 137.38 145.805 137.796 145.637 138.164C145.469 138.524 145.217 138.828 144.881 139.076V141.32H147.185ZM142.673 138.644C143.353 138.644 143.861 138.488 144.197 138.176C144.533 137.864 144.701 137.44 144.701 136.904C144.701 136.368 144.533 135.944 144.197 135.632C143.861 135.32 143.353 135.164 142.673 135.164C141.993 135.164 141.485 135.32 141.149 135.632C140.821 135.944 140.657 136.368 140.657 136.904C140.657 137.44 140.821 137.864 141.149 138.176C141.485 138.488 141.993 138.644 142.673 138.644ZM142.673 139.652C142.289 139.652 141.957 139.624 141.677 139.568V141.32H143.681V139.556C143.521 139.588 143.357 139.612 143.189 139.628C143.029 139.644 142.857 139.652 142.673 139.652ZM149.625 143.24H148.269V141.968H149.625V143.24Z" fill="#888C92"/>
<rect x="37" y="664" width="139" height="44" rx="8" fill="white"/>
<rect x="185" y="664" width="139" height="44" rx="8" fill="#23778E"/>
<path d="M86.4 679.856H96.672V681.656H92.832C92.912 682.488 93.352 683.208 94.152 683.816C94.968 684.408 96.056 684.96 97.416 685.472L96.336 687.176C95.232 686.808 94.272 686.352 93.456 685.808C92.656 685.264 92.04 684.68 91.608 684.056C91.16 684.728 90.52 685.352 89.688 685.928C88.856 686.504 87.912 686.968 86.856 687.32L85.848 685.712C86.504 685.456 87.104 685.184 87.648 684.896C88.192 684.592 88.656 684.272 89.04 683.936C89.44 683.6 89.752 683.248 89.976 682.88C90.2 682.496 90.32 682.088 90.336 681.656H86.4V679.856ZM88.704 676.88H94.728V678.68H88.704V676.88ZM99.264 689.072C98.88 689.312 98.464 689.512 98.016 689.672C97.568 689.832 97.104 689.96 96.624 690.056C96.16 690.136 95.688 690.2 95.208 690.248C94.744 690.28 94.304 690.296 93.888 690.296H92.952V696.584H90.552V690.296H84.984V688.376H93.36C93.84 688.376 94.336 688.376 94.848 688.376C95.376 688.36 95.896 688.32 96.408 688.256C96.92 688.192 97.416 688.096 97.896 687.968C98.376 687.824 98.832 687.624 99.264 687.368V676.808H101.664V697.16H99.264V689.072ZM113.432 683.144C113.128 683.608 112.736 684.08 112.256 684.56C111.776 685.024 111.232 685.456 110.624 685.856C110.032 686.256 109.4 686.616 108.728 686.936C108.072 687.24 107.408 687.472 106.736 687.632L105.8 685.952C106.744 685.664 107.608 685.296 108.392 684.848C109.192 684.4 109.872 683.912 110.432 683.384C111.008 682.84 111.448 682.272 111.752 681.68C112.072 681.088 112.232 680.504 112.232 679.928V677.48H114.632V679.928C114.632 680.504 114.784 681.088 115.088 681.68C115.408 682.272 115.848 682.84 116.408 683.384C116.984 683.912 117.664 684.4 118.448 684.848C119.248 685.296 120.12 685.664 121.064 685.952L120.128 687.632C119.456 687.472 118.784 687.24 118.112 686.936C117.456 686.616 116.824 686.256 116.216 685.856C115.624 685.456 115.088 685.024 114.608 684.56C114.128 684.08 113.736 683.608 113.432 683.144ZM112.232 687.08H114.632V691.64H122.456V693.632H104.432V691.64H112.232V687.08Z" fill="#16657F"/>
<path d="M240.936 686.408C240.44 687.416 239.76 688.4 238.896 689.36C238.032 690.304 237.08 691.12 236.04 691.808L234.552 690.104C235.336 689.544 236.04 688.96 236.664 688.352C237.304 687.728 237.848 687.096 238.296 686.456C238.744 685.8 239.088 685.152 239.328 684.512C239.584 683.856 239.712 683.216 239.712 682.592V679.976H235.752V678.032H245.88V679.976H242.16V682.592C242.16 683.2 242.272 683.824 242.496 684.464C242.736 685.088 243.064 685.72 243.48 686.36C243.896 686.984 244.4 687.592 244.992 688.184C245.6 688.776 246.28 689.336 247.032 689.864L245.544 691.568C244.584 690.944 243.696 690.168 242.88 689.24C242.08 688.312 241.432 687.368 240.936 686.408ZM248.712 685.088H244.776V683.048H248.712V676.808H251.112V697.16H248.712V685.088ZM263.888 697.496C262.72 697.496 261.728 697.384 260.912 697.16C260.096 696.952 259.424 696.656 258.896 696.272C258.384 695.904 258.008 695.464 257.768 694.952C257.544 694.44 257.432 693.88 257.432 693.272C257.432 692.68 257.544 692.128 257.768 691.616C258.008 691.088 258.384 690.64 258.896 690.272C259.424 689.888 260.096 689.592 260.912 689.384C261.728 689.16 262.72 689.048 263.888 689.048C265.056 689.048 266.048 689.16 266.864 689.384C267.68 689.592 268.344 689.888 268.856 690.272C269.368 690.64 269.744 691.088 269.984 691.616C270.224 692.128 270.344 692.68 270.344 693.272C270.344 693.88 270.224 694.44 269.984 694.952C269.744 695.464 269.368 695.904 268.856 696.272C268.344 696.656 267.68 696.952 266.864 697.16C266.048 697.384 265.056 697.496 263.888 697.496ZM260.36 683.432C259.912 684.328 259.248 685.16 258.368 685.928C257.488 686.696 256.528 687.352 255.488 687.896L254.264 686.144C255 685.744 255.664 685.304 256.256 684.824C256.864 684.344 257.376 683.848 257.792 683.336C258.224 682.808 258.552 682.272 258.776 681.728C259.016 681.168 259.136 680.616 259.136 680.072V679.664H255.176V677.744H265.328V679.664H261.56V680.072C261.56 680.6 261.672 681.136 261.896 681.68C262.12 682.224 262.424 682.752 262.808 683.264C263.208 683.76 263.68 684.232 264.224 684.68C264.784 685.128 265.4 685.536 266.072 685.904L264.848 687.656C264.4 687.432 263.944 687.16 263.48 686.84C263.032 686.504 262.608 686.152 262.208 685.784C261.808 685.4 261.448 685.008 261.128 684.608C260.808 684.192 260.552 683.8 260.36 683.432ZM267.704 688.496V676.808H270.104V681.488H273.008V683.504H270.104V688.496H267.704ZM263.888 695.6C264.672 695.6 265.32 695.544 265.832 695.432C266.36 695.32 266.776 695.16 267.08 694.952C267.4 694.744 267.624 694.496 267.752 694.208C267.88 693.92 267.944 693.608 267.944 693.272C267.944 692.936 267.88 692.624 267.752 692.336C267.624 692.048 267.4 691.8 267.08 691.592C266.776 691.384 266.36 691.224 265.832 691.112C265.32 691 264.672 690.944 263.888 690.944C263.104 690.944 262.448 691 261.92 691.112C261.408 691.224 260.992 691.384 260.672 691.592C260.368 691.8 260.152 692.048 260.023 692.336C259.896 692.624 259.832 692.936 259.832 693.272C259.832 693.608 259.896 693.92 260.023 694.208C260.152 694.496 260.368 694.744 260.672 694.952C260.992 695.16 261.408 695.32 261.92 695.432C262.448 695.544 263.104 695.6 263.888 695.6Z" fill="white"/>
<path d="M149.5 483H156.5V463.5H149.5V460H95V514.5H139V489H149.5V483Z" fill="#63A7AC"/>
<path d="M149.5 547.5H156.5V528H149.5V524H95V578.5H139V553H149.5V547.5Z" fill="#D0916E"/>
<path d="M187 494H180V514H187V517.5H268V457H187V494Z" fill="#9B9CC4"/>
<path d="M225 379.5V367.5H95V449.5H156.5V567H180.5V449.5H225V401.5H239V428.5H268.5V379.5H225Z" fill="#C3827A"/>
<path d="M239 305V286H95V355.5H170.5V367.5H190.5V316.5H206.5V305H239Z" fill="#6892B4"/>
<path fill-rule="evenodd" clip-rule="evenodd" d="M141.787 412.956C145.282 412.565 148 409.6 148 406C148 402.134 144.866 399 141 399C137.134 399 134 402.134 134 406C134 409.6 136.718 412.565 140.213 412.956L141 415L141.787 412.956Z" fill="white" fill-opacity="0.9"/>
<path d="M138 405.5V403H144V405.5L146 406V409H136V406L138 405.5Z" fill="#F47672"/>
<path fill-rule="evenodd" clip-rule="evenodd" d="M119.787 494.956C123.282 494.565 126 491.6 126 488C126 484.134 122.866 481 119 481C115.134 481 112 484.134 112 488C112 491.6 114.718 494.565 118.213 494.956L119 497L119.787 494.956Z" fill="white" fill-opacity="0.9"/>
<path d="M116 487.5V485H122V487.5L124 488V491H114V488L116 487.5Z" fill="#F47672"/>
<path fill-rule="evenodd" clip-rule="evenodd" d="M119.787 552.956C123.282 552.565 126 549.6 126 546C126 542.134 122.866 539 119 539C115.134 539 112 542.134 112 546C112 549.6 114.718 552.565 118.213 552.956L119 555L119.787 552.956Z" fill="white" fill-opacity="0.9"/>
<path d="M116 545.5V543H122V545.5L124 546V549H114V546L116 545.5Z" fill="#F47672"/>
<path fill-rule="evenodd" clip-rule="evenodd" d="M229.787 488.956C233.282 488.565 236 485.6 236 482C236 478.134 232.866 475 229 475C225.134 475 222 478.134 222 482C222 485.6 224.718 488.565 228.213 488.956L229 491L229.787 488.956Z" fill="white" fill-opacity="0.9"/>
<path d="M226 481.5V479H232V481.5L234 482V485H224V482L226 481.5Z" fill="#F47672"/>
<path fill-rule="evenodd" clip-rule="evenodd" d="M144.787 330.956C148.282 330.565 151 327.6 151 324C151 320.134 147.866 317 144 317C140.134 317 137 320.134 137 324C137 327.6 139.718 330.565 143.213 330.956L144 333L144.787 330.956Z" fill="white" fill-opacity="0.9"/>
<path d="M141 323.5V321H147V323.5L149 324V327H139V324L141 323.5Z" fill="#F47672"/>
<circle cx="193.5" cy="439.5" r="6.5" fill="#674C48"/>
<path d="M193.5 436L190 439.6H191.167V442H192.5V440H195V442H195.833V439.6H197L193.5 436Z" fill="white" stroke="white" stroke-linejoin="round"/>
<path d="M239.5 305V286H95.5V355.5H171V367.5H165H95.5V449.5H157V463.5H150V460H95.5V514.5H139.5V489H150V483H157V528H150V524H95.5V578.5H139.5V553H150V547.5H157V567H181V514.5H188V518H269V457.5H188V494.5H181V449.5H225.5V401.5H239.5V428.5H269V379.5H225.5V367.5H191V316.5H207V305H239.5Z" stroke="#393939" stroke-width="3" stroke-linejoin="round"/>
<path d="M209.5 578.5V498H129V578.5H209.5Z" fill="#A40F0D" fill-opacity="0.2" stroke="#A40F0D"/>
<circle cx="129.5" cy="498.5" r="12.5" fill="#A40F0D"/>
<circle cx="209.5" cy="578.5" r="12.5" fill="#A40F0D"/>
<path d="M215 584.5C215.276 584.5 215.5 584.276 215.5 584V579.5C215.5 579.224 215.276 579 215 579C214.724 579 214.5 579.224 214.5 579.5V583.5H210.5C210.224 583.5 210 583.724 210 584C210 584.276 210.224 584.5 210.5 584.5H215ZM204 572.5C203.724 572.5 203.5 572.724 203.5 573V577.5C203.5 577.776 203.724 578 204 578C204.276 578 204.5 577.776 204.5 577.5V573.5H208.5C208.776 573.5 209 573.276 209 573C209 572.724 208.776 572.5 208.5 572.5H204ZM203.646 573.354L203.99 573.697L204.697 572.99L204.354 572.646L203.646 573.354ZM204.678 574.385L205.365 575.072L206.072 574.365L205.385 573.678L204.678 574.385ZM206.053 575.76L206.74 576.447L207.447 575.74L206.76 575.053L206.053 575.76ZM207.428 577.135L208.115 577.822L208.822 577.115L208.135 576.428L207.428 577.135ZM208.803 578.51L209.49 579.197L210.197 578.49L209.51 577.803L208.803 578.51ZM210.178 579.885L210.865 580.572L211.572 579.865L210.885 579.178L210.178 579.885ZM211.553 581.26L212.24 581.947L212.947 581.24L212.26 580.553L211.553 581.26ZM212.928 582.635L213.615 583.322L214.322 582.615L213.635 581.928L212.928 582.635ZM214.303 584.01L214.646 584.354L215.354 583.646L215.01 583.303L214.303 584.01Z" fill="white"/>
<path d="M200 500H207.5V507" stroke="#A40F0D" stroke-width="4"/>
<path d="M138.5 577L131 577L131 570" stroke="#A40F0D" stroke-width="4"/>
<path d="M135.5 492.5L123.5 504.5M123 492.5L135 504.5" stroke="white"/>
<circle cx="179.5" cy="196.5" r="21.5" fill="white"/>
<circle cx="237.5" cy="196.5" r="21.5" fill="white"/>
<circle cx="298.5" cy="196.5" r="21.5" fill="white"/>
<path fill-rule="evenodd" clip-rule="evenodd" d="M166 187.825C166 189.899 167.309 191.668 169.146 192.35V205.874V207.374H170.646H184.17C184.852 209.211 186.621 210.52 188.695 210.52C191.36 210.52 193.52 208.36 193.52 205.695C193.52 203.488 192.039 201.628 190.016 201.053V188.004V186.504H188.516H175.467C174.892 184.481 173.031 183 170.825 183C168.16 183 166 185.16 166 187.825ZM187.016 201.17V189.504H175.35C174.819 190.935 173.628 192.046 172.146 192.467V204.374H184.053C184.474 202.892 185.585 201.701 187.016 201.17Z" fill="#434343"/>
<path fill-rule="evenodd" clip-rule="evenodd" d="M175.935 196.76C175.935 194.647 177.648 192.935 179.76 192.935C180.363 192.935 180.934 193.075 181.441 193.323L176.519 198.792C176.149 198.203 175.935 197.507 175.935 196.76ZM177.988 200.15C178.518 200.428 179.12 200.585 179.76 200.585C181.872 200.585 183.585 198.872 183.585 196.76C183.585 195.977 183.349 195.248 182.945 194.642L177.988 200.15ZM179.76 190.935C176.543 190.935 173.935 193.543 173.935 196.76C173.935 199.977 176.543 202.585 179.76 202.585C182.977 202.585 185.585 199.977 185.585 196.76C185.585 193.543 182.977 190.935 179.76 190.935Z" fill="#434343"/>
<path fill-rule="evenodd" clip-rule="evenodd" d="M224 187.825C224 189.899 225.309 191.668 227.146 192.35V205.874V207.374H228.646H242.17C242.852 209.211 244.621 210.52 246.695 210.52C249.36 210.52 251.52 208.36 251.52 205.695C251.52 203.488 250.039 201.628 248.016 201.053V188.004V186.504H246.516H233.467C232.892 184.481 231.031 183 228.825 183C226.16 183 224 185.16 224 187.825ZM245.016 201.17V189.504H233.35C232.819 190.935 231.628 192.046 230.146 192.467V204.374H242.053C242.474 202.892 243.585 201.701 245.016 201.17Z" fill="#434343"/>
<path fill-rule="evenodd" clip-rule="evenodd" d="M237.182 202.866C239.421 202.866 240.935 201.015 240.935 198.731C240.935 197.893 240.43 196.495 239.791 195.06L242.714 192.137C243.105 191.746 243.105 191.113 242.714 190.722C242.324 190.332 241.691 190.332 241.3 190.722L238.877 193.145C238.003 191.41 237.182 190 237.182 190C237.182 190 233.579 196.191 233.434 198.588L231.293 200.73C230.902 201.12 230.902 201.753 231.293 202.144C231.683 202.534 232.317 202.534 232.707 202.144L233.949 200.902C234.574 202.081 235.725 202.866 237.182 202.866Z" fill="#434343"/>
<path fill-rule="evenodd" clip-rule="evenodd" d="M285 187.825C285 189.899 286.309 191.668 288.146 192.35V205.874V207.374H289.646H303.17C303.852 209.211 305.621 210.52 307.695 210.52C310.36 210.52 312.52 208.36 312.52 205.695C312.52 203.488 311.039 201.628 309.016 201.053V188.004V186.504H307.516H294.467C293.892 184.481 292.031 183 289.825 183C287.16 183 285 185.16 285 187.825ZM306.016 201.17V189.504H294.35C293.819 190.935 292.628 192.046 291.146 192.467V204.374H303.053C303.474 202.892 304.585 201.701 306.016 201.17Z" fill="#434343"/>
<path fill-rule="evenodd" clip-rule="evenodd" d="M296.062 195.478C296.062 194.11 297.171 193 298.54 193C298.902 193 299.247 193.078 299.557 193.218L296.399 196.727C296.184 196.36 296.062 195.934 296.062 195.478ZM298.03 197.904C298.194 197.939 298.365 197.957 298.54 197.957C299.909 197.957 301.018 196.847 301.018 195.478C301.018 195.213 300.976 194.956 300.899 194.716L298.03 197.904ZM298.54 191C296.067 191 294.062 193.005 294.062 195.478C294.062 197.952 296.067 199.957 298.54 199.957C301.013 199.957 303.018 197.952 303.018 195.478C303.018 193.005 301.013 191 298.54 191Z" fill="#434343"/>
<path fill-rule="evenodd" clip-rule="evenodd" d="M294.43 203.079C294.959 203.079 295.421 202.792 295.668 202.365H301.411C301.659 202.792 302.121 203.079 302.65 203.079C303.439 203.079 304.079 202.439 304.079 201.65C304.079 200.86 303.439 200.22 302.65 200.22C301.958 200.22 301.381 200.712 301.249 201.365H295.831C295.699 200.712 295.121 200.22 294.43 200.22C293.64 200.22 293 200.86 293 201.65C293 202.439 293.64 203.079 294.43 203.079Z" fill="#434343"/>
</svg>
