<svg width="360" height="800" viewBox="0 0 360 800" fill="none" xmlns="http://www.w3.org/2000/svg">
<rect width="360" height="800" fill="white"/>
<rect width="360" height="800" fill="#ECF1F2"/>
<rect x="36" y="617" width="290" height="137" rx="10" fill="white"/>
<path fill-rule="evenodd" clip-rule="evenodd" d="M313.919 42.5673C315.009 41.9381 315.528 40.6993 315.293 39.5302C316.825 39.2194 318.393 39.2863 319.866 39.6959C319.709 40.8148 320.229 41.9679 321.268 42.5675C322.273 43.1479 323.484 43.048 324.369 42.4107C324.88 42.9532 325.336 43.5629 325.725 44.2363C326.114 44.9097 326.414 45.6101 326.628 46.3238C325.634 46.7712 324.942 47.7703 324.942 48.9311C324.942 50.1303 325.68 51.1569 326.727 51.5809C326.346 53.0612 325.62 54.4521 324.585 55.6236C323.69 54.8357 322.357 54.6654 321.268 55.2946C320.108 55.9638 319.596 57.3224 319.948 58.5534C318.374 59.0071 316.739 59.0481 315.188 58.7153C315.635 57.4435 315.13 55.9934 313.919 55.2948C312.673 54.5753 311.111 54.901 310.246 55.9999C309.681 55.4229 309.178 54.766 308.755 54.0338C308.332 53.3017 308.015 52.5377 307.798 51.7593C309.182 51.5603 310.245 50.3698 310.245 48.9309C310.245 47.5336 309.242 46.3706 307.917 46.1223C308.405 44.6125 309.258 43.2169 310.437 42.081C311.327 43.0014 312.76 43.2365 313.919 42.5673ZM319.23 52.0458C320.929 51.0647 321.512 48.892 320.531 47.1928C319.55 45.4936 317.377 44.9115 315.678 45.8925C313.978 46.8735 313.396 49.0462 314.377 50.7454C315.358 52.4446 317.531 53.0268 319.23 52.0458Z" fill="#666B80"/>
<path d="M278.968 528H271.864V527.184L275.112 523.824C275.539 523.376 275.901 522.981 276.2 522.64C276.499 522.299 276.739 521.984 276.92 521.696C277.101 521.408 277.235 521.141 277.32 520.896C277.405 520.651 277.448 520.405 277.448 520.16C277.448 519.552 277.251 519.061 276.856 518.688C276.461 518.315 275.939 518.128 275.288 518.128C275.011 518.128 274.749 518.176 274.504 518.272C274.259 518.357 274.029 518.469 273.816 518.608C273.613 518.736 273.427 518.885 273.256 519.056C273.096 519.216 272.957 519.371 272.84 519.52L272.008 518.752C272.157 518.549 272.344 518.352 272.568 518.16C272.792 517.957 273.037 517.776 273.304 517.616C273.581 517.456 273.88 517.328 274.2 517.232C274.531 517.136 274.877 517.088 275.24 517.088C276.285 517.088 277.112 517.355 277.72 517.888C278.339 518.411 278.648 519.173 278.648 520.176C278.648 520.464 278.6 520.768 278.504 521.088C278.419 521.397 278.275 521.728 278.072 522.08C277.869 522.421 277.603 522.795 277.272 523.2C276.952 523.595 276.557 524.027 276.088 524.496L273.624 526.976H278.968V528ZM280.086 522.64C280.086 521.691 280.171 520.869 280.342 520.176C280.523 519.472 280.779 518.896 281.11 518.448C281.44 517.989 281.84 517.648 282.31 517.424C282.779 517.2 283.302 517.088 283.878 517.088C284.464 517.088 284.992 517.2 285.462 517.424C285.931 517.648 286.331 517.989 286.662 518.448C286.992 518.896 287.243 519.472 287.414 520.176C287.595 520.869 287.686 521.691 287.686 522.64C287.686 523.589 287.595 524.411 287.414 525.104C287.243 525.787 286.992 526.357 286.662 526.816C286.331 527.275 285.931 527.616 285.462 527.84C284.992 528.053 284.464 528.16 283.878 528.16C282.715 528.16 281.792 527.712 281.11 526.816C280.427 525.92 280.086 524.528 280.086 522.64ZM281.318 522.64C281.318 524.123 281.542 525.243 281.99 526C282.448 526.757 283.078 527.136 283.878 527.136C284.678 527.136 285.307 526.757 285.766 526C286.224 525.243 286.454 524.123 286.454 522.64C286.454 521.157 286.224 520.037 285.766 519.28C285.307 518.512 284.678 518.128 283.878 518.128C283.078 518.128 282.448 518.512 281.99 519.28C281.542 520.037 281.318 521.157 281.318 522.64ZM290.833 528.48H289.681L297.473 516.704H298.609L290.833 528.48ZM288.753 519.936C288.753 518.965 288.94 518.245 289.313 517.776C289.686 517.296 290.225 517.056 290.929 517.056C291.633 517.056 292.172 517.296 292.545 517.776C292.918 518.245 293.105 518.965 293.105 519.936C293.105 520.907 292.918 521.632 292.545 522.112C292.172 522.592 291.633 522.832 290.929 522.832C290.225 522.832 289.686 522.592 289.313 522.112C288.94 521.632 288.753 520.907 288.753 519.936ZM289.857 519.936C289.857 521.237 290.214 521.888 290.929 521.888C291.644 521.888 292.001 521.237 292.001 519.936C292.001 518.635 291.644 517.984 290.929 517.984C290.214 517.984 289.857 518.635 289.857 519.936ZM295.233 525.232C295.233 524.261 295.42 523.541 295.793 523.072C296.166 522.592 296.705 522.352 297.409 522.352C298.113 522.352 298.652 522.592 299.025 523.072C299.398 523.541 299.585 524.261 299.585 525.232C299.585 526.203 299.398 526.928 299.025 527.408C298.652 527.877 298.113 528.112 297.409 528.112C296.705 528.112 296.166 527.877 295.793 527.408C295.42 526.928 295.233 526.203 295.233 525.232ZM296.337 525.232C296.337 526.533 296.694 527.184 297.409 527.184C298.124 527.184 298.481 526.533 298.481 525.232C298.481 523.931 298.124 523.28 297.409 523.28C296.694 523.28 296.337 523.931 296.337 525.232Z" fill="black"/>
<path d="M50.02 514.88V531.74H48.52V514.88H50.02ZM41.52 527.52C38.8 527.52 37.44 525.553 37.44 521.62C37.44 517.673 38.8 515.7 41.52 515.7C44.24 515.7 45.6 517.673 45.6 521.62C45.6 525.553 44.24 527.52 41.52 527.52ZM41.52 526.2C42.3733 526.2 43.0133 525.847 43.44 525.14C43.8667 524.42 44.08 523.247 44.08 521.62C44.08 519.993 43.8667 518.82 43.44 518.1C43.0133 517.38 42.3733 517.02 41.52 517.02C40.6533 517.02 40.0067 517.38 39.58 518.1C39.1667 518.82 38.96 519.993 38.96 521.62C38.96 523.247 39.1667 524.42 39.58 525.14C40.0067 525.847 40.6533 526.2 41.52 526.2ZM64.4695 516.5H56.1495V519.28C56.1495 519.413 56.1629 519.5 56.1895 519.54C56.2295 519.567 56.3162 519.58 56.4495 519.58H64.5695V520.84H60.3695V523.08H67.0095V524.34H52.1895V523.08H58.8695V520.84H55.6495C55.2762 520.84 55.0095 520.733 54.8495 520.52C54.7029 520.307 54.6295 520.02 54.6295 519.66V515.24H64.4695V516.5ZM59.7095 532.04C57.8429 532.04 56.5095 531.767 55.7095 531.22C54.9229 530.673 54.5295 529.873 54.5295 528.82C54.5295 527.767 54.9229 526.967 55.7095 526.42C56.5095 525.873 57.8429 525.6 59.7095 525.6C61.5762 525.6 62.9029 525.873 63.6895 526.42C64.4895 526.967 64.8895 527.767 64.8895 528.82C64.8895 529.873 64.4895 530.673 63.6895 531.22C62.9029 531.767 61.5762 532.04 59.7095 532.04ZM59.7095 530.82C60.4295 530.82 61.0229 530.773 61.4895 530.68C61.9562 530.6 62.3295 530.473 62.6095 530.3C62.8895 530.127 63.0829 529.92 63.1895 529.68C63.3095 529.427 63.3695 529.14 63.3695 528.82C63.3695 528.5 63.3095 528.22 63.1895 527.98C63.0829 527.727 62.8895 527.513 62.6095 527.34C62.3295 527.167 61.9562 527.04 61.4895 526.96C61.0229 526.867 60.4295 526.82 59.7095 526.82C58.9895 526.82 58.3962 526.867 57.9295 526.96C57.4629 527.04 57.0895 527.167 56.8095 527.34C56.5295 527.513 56.3295 527.727 56.2095 527.98C56.1029 528.22 56.0495 528.5 56.0495 528.82C56.0495 529.14 56.1029 529.427 56.2095 529.68C56.3295 529.92 56.5295 530.127 56.8095 530.3C57.0895 530.473 57.4629 530.6 57.9295 530.68C58.3962 530.773 58.9895 530.82 59.7095 530.82ZM79.8845 532.04C78.9512 532.04 78.1512 531.967 77.4845 531.82C76.8312 531.687 76.2979 531.48 75.8845 531.2C75.4712 530.92 75.1712 530.573 74.9845 530.16C74.7979 529.76 74.7045 529.3 74.7045 528.78C74.7045 527.807 75.0445 527.047 75.7245 526.5C76.4045 525.94 77.5445 525.62 79.1445 525.54V523.66H72.4645V522.4H87.2845V523.66H80.6445V525.54C82.2179 525.62 83.3445 525.94 84.0245 526.5C84.7179 527.047 85.0645 527.807 85.0645 528.78C85.0645 529.3 84.9712 529.76 84.7845 530.16C84.5979 530.573 84.2979 530.92 83.8845 531.2C83.4712 531.48 82.9312 531.687 82.2645 531.82C81.6112 531.967 80.8179 532.04 79.8845 532.04ZM74.7645 516.5V515.24H84.9445V516.5H80.6245C80.6379 516.887 80.7779 517.26 81.0445 517.62C81.3112 517.967 81.6779 518.3 82.1445 518.62C82.6245 518.927 83.1979 519.213 83.8645 519.48C84.5312 519.747 85.2645 519.987 86.0645 520.2L85.4445 521.36C84.9112 521.253 84.3579 521.1 83.7845 520.9C83.2245 520.7 82.6845 520.467 82.1645 520.2C81.6579 519.933 81.1979 519.633 80.7845 519.3C80.3712 518.967 80.0579 518.607 79.8445 518.22C79.2845 519.06 78.4912 519.753 77.4645 520.3C76.4512 520.833 75.3645 521.22 74.2045 521.46L73.5245 520.34C74.3245 520.127 75.0579 519.873 75.7245 519.58C76.3912 519.287 76.9645 518.973 77.4445 518.64C77.9245 518.293 78.2979 517.94 78.5645 517.58C78.8445 517.22 78.9979 516.86 79.0245 516.5H74.7645ZM79.8845 530.82C80.6045 530.82 81.1979 530.773 81.6645 530.68C82.1312 530.587 82.5045 530.453 82.7845 530.28C83.0645 530.107 83.2579 529.893 83.3645 529.64C83.4845 529.387 83.5445 529.1 83.5445 528.78C83.5445 528.46 83.4845 528.173 83.3645 527.92C83.2579 527.667 83.0645 527.453 82.7845 527.28C82.5045 527.107 82.1312 526.973 81.6645 526.88C81.1979 526.787 80.6045 526.74 79.8845 526.74C79.1645 526.74 78.5712 526.787 78.1045 526.88C77.6379 526.973 77.2645 527.107 76.9845 527.28C76.7045 527.453 76.5045 527.667 76.3845 527.92C76.2779 528.173 76.2245 528.46 76.2245 528.78C76.2245 529.1 76.2779 529.387 76.3845 529.64C76.5045 529.893 76.7045 530.107 76.9845 530.28C77.2645 530.453 77.6379 530.587 78.1045 530.68C78.5712 530.773 79.1645 530.82 79.8845 530.82Z" fill="black"/>
<path d="M65 646H56L57.5 655H63.5L65 646Z" fill="#9B9B9B" fill-opacity="0.6"/>
<path d="M67.5 649V639.5H69V649H71L72.5 655H64L65.5 649H67.5Z" fill="#F6A64B" fill-opacity="0.6"/>
<path d="M157.309 323.569H163V307.826H157.309V305H113V349H148.772V328.413H157.309V323.569Z" fill="#63A7AC"/>
<path d="M157.309 375.541H163V360.156H157.309V357H113V400H148.772V379.881H157.309V375.541Z" fill="#D0916E"/>
<path d="M186.648 332.967H181V349.165H186.648V352H252V303H186.648V332.967Z" fill="#9B9CC4"/>
<path d="M217.899 240.624V231H113V296.764H162.625V391H181.991V296.764H217.899V258.268H229.196V279.922H253V240.624H217.899Z" fill="#C3827A"/>
<path d="M229 180.387V165H113V221.282H173.819V231H189.931V189.699H202.819V180.387H229Z" fill="#6892B4"/>
<path fill-rule="evenodd" clip-rule="evenodd" d="M150.644 267.149C153.457 266.834 155.644 264.448 155.644 261.552C155.644 258.441 153.122 255.919 150.012 255.919C146.901 255.919 144.379 258.441 144.379 261.552C144.379 264.448 146.566 266.834 149.378 267.149L150.011 268.793L150.644 267.149Z" fill="white" fill-opacity="0.9"/>
<path d="M147.598 261.149V259.138H152.426V261.149L154.035 261.552V263.965H145.989V261.552L147.598 261.149Z" fill="#F47672"/>
<path fill-rule="evenodd" clip-rule="evenodd" d="M132.943 333.126C135.756 332.812 137.943 330.426 137.943 327.529C137.943 324.418 135.421 321.897 132.31 321.897C129.2 321.897 126.678 324.418 126.678 327.529C126.678 330.425 128.865 332.811 131.677 333.126L132.31 334.77L132.943 333.126Z" fill="white" fill-opacity="0.9"/>
<path d="M129.897 327.127V325.115H134.724V327.127L136.334 327.529V329.943H128.288V327.529L129.897 327.127Z" fill="#F47672"/>
<path fill-rule="evenodd" clip-rule="evenodd" d="M132.943 379.792C135.756 379.478 137.943 377.092 137.943 374.195C137.943 371.085 135.421 368.563 132.31 368.563C129.2 368.563 126.678 371.085 126.678 374.195C126.678 377.092 128.865 379.478 131.677 379.792L132.31 381.437L132.943 379.792Z" fill="white" fill-opacity="0.9"/>
<path d="M129.897 373.793V371.782H134.724V373.793L136.334 374.195V376.609H128.288V374.195L129.897 373.793Z" fill="#F47672"/>
<path fill-rule="evenodd" clip-rule="evenodd" d="M221.449 328.298C224.262 327.983 226.448 325.598 226.448 322.701C226.448 319.59 223.927 317.069 220.816 317.069C217.706 317.069 215.184 319.59 215.184 322.701C215.184 325.598 217.371 327.984 220.183 328.298L220.816 329.943L221.449 328.298Z" fill="white" fill-opacity="0.9"/>
<path d="M218.403 322.299V320.287H223.23V322.299L224.839 322.701V325.115H216.793V322.701L218.403 322.299Z" fill="#F47672"/>
<path fill-rule="evenodd" clip-rule="evenodd" d="M153.058 201.172C155.871 200.857 158.058 198.471 158.058 195.575C158.058 192.464 155.536 189.942 152.426 189.942C149.315 189.942 146.793 192.464 146.793 195.575C146.793 198.471 148.98 200.857 151.792 201.172L152.425 202.816L153.058 201.172Z" fill="white" fill-opacity="0.9"/>
<path d="M150.012 195.172V193.161H154.84V195.172L156.449 195.575V197.988H148.403V195.575L150.012 195.172Z" fill="#F47672"/>
<circle cx="192.253" cy="288.506" r="5.22989" fill="#674C48"/>
<path d="M192.253 285.69L189.437 288.586H190.375V290.517H191.448V288.908H193.46V290.517H194.13V288.586H195.069L192.253 285.69Z" fill="white" stroke="white" stroke-linejoin="round"/>
<path d="M229.196 180.265V165H113V220.838H173.922V230.479H169.081H113V296.359H162.625V307.607H156.977V304.795H113V348.581H148.504V328.094H156.977V323.274H162.625V359.427H156.977V356.214H113V400H148.504V379.513H156.977V375.094H162.625V390.761H181.991V348.581H187.64V351.393H253V302.786H187.64V332.513H181.991V296.359H217.899V257.795H229.196V279.487H253V240.12H217.899V230.479H190.061V189.504H202.971V180.265H229.196Z" stroke="#393939" stroke-width="3" stroke-linejoin="round"/>
<rect x="36" y="556" width="242" height="35" rx="16" fill="#DBDFE0"/>
<path d="M108.56 571.76C107.82 573.24 106.24 574.68 104.5 575.62L103.48 574.16C105.96 572.74 107.54 570.68 107.54 568.8V568.36H104.24V566.76H112.7V568.36H109.56V568.8C109.56 570.64 111.06 572.68 113.32 573.96L112.3 575.42C110.78 574.64 109.2 573 108.56 571.76ZM117.26 565.84V578.06H115.24V571.58H112.16V569.9H115.24V565.84H117.26ZM106.9 581.58V576.96H108.9V580.76C108.9 581.06 108.94 581.08 109.2 581.08H117.66V582.7H108.04C107.28 582.7 106.9 582.32 106.9 581.58ZM123.906 575.04C123.346 576.28 122.086 577.78 120.686 578.88L119.466 577.56C121.346 576.1 122.926 573.86 122.926 571.66V570.86H120.386V569.26H127.366V570.86H124.866V571.66C124.866 573.86 126.346 576.04 128.206 577.44L126.986 578.76C125.606 577.72 124.466 576.24 123.906 575.04ZM129.066 582.24V573.96H126.566V572.3H129.066V566.06H130.946V582.24H129.066ZM132.186 582.8V565.84H134.086V582.8H132.186ZM126.346 568H121.306V566.3H126.346V568ZM149.898 583.08C146.018 583.08 144.518 581.78 144.518 579.76C144.518 577.74 146.018 576.44 149.898 576.44C153.778 576.44 155.278 577.74 155.278 579.76C155.278 581.8 153.778 583.08 149.898 583.08ZM145.138 570.06H142.018V568.56H150.378V570.06H147.198V570.46C147.198 571.5 148.478 573 150.898 573.94L149.918 575.36C148.478 574.78 146.998 573.78 146.178 572.6C145.338 573.9 143.838 575.04 142.278 575.82L141.298 574.4C143.878 573.28 145.138 571.56 145.138 570.46V570.06ZM155.078 565.84V575.88H153.058V572.44H150.218V570.76H153.058V565.84H155.078ZM149.898 581.5C152.498 581.5 153.278 580.9 153.278 579.76C153.278 578.64 152.498 578.02 149.898 578.02C147.298 578.02 146.518 578.64 146.518 579.76C146.518 580.9 147.298 581.5 149.898 581.5ZM143.618 567.46V565.8H148.778V567.46H143.618ZM165.144 571.12C164.144 572.68 161.784 574.34 159.564 574.86L158.784 573.46C161.944 572.52 164.144 570.34 164.144 568.44V566.4H166.144V568.44C166.144 570.34 168.344 572.52 171.504 573.46L170.724 574.86C168.504 574.34 166.144 572.68 165.144 571.12ZM164.144 578.2V574.4H166.144V578.2H172.664V579.86H157.644V578.2H164.144ZM190.896 582.8V565.84H192.896V582.8H190.896ZM184.416 573.98C183.596 575.64 182.016 577.34 180.296 578.48L179.096 577.16C181.696 575.3 183.396 572.96 183.396 570.9V566.6H185.436V570.9C185.436 572.92 187.036 575.24 189.576 576.94L188.476 578.3C186.816 577.22 185.176 575.52 184.416 573.98ZM200.402 571.42C199.662 572.9 198.082 574.34 196.342 575.28L195.322 573.82C197.802 572.4 199.382 570.5 199.382 568.62V568.22H196.082V566.62H204.542V568.22H201.402V568.62C201.402 570.46 202.902 572.34 205.162 573.62L204.142 575.08C202.622 574.3 201.042 572.66 200.402 571.42ZM208.522 576.56V583H206.522V578.2H197.962V576.56H208.522ZM208.522 575.42H206.522V565.84H208.522V569.76H210.942V571.36H208.522V575.42Z" fill="white"/>
<path d="M98.356 644.456C95.64 644.456 94.59 643.546 94.59 642.132C94.59 640.718 95.64 639.808 98.356 639.808C101.072 639.808 102.122 640.718 102.122 642.132C102.122 643.56 101.072 644.456 98.356 644.456ZM95.024 635.342H92.84V634.292H98.692V635.342H96.466V635.622C96.466 636.35 97.362 637.4 99.056 638.058L98.37 639.052C97.362 638.646 96.326 637.946 95.752 637.12C95.164 638.03 94.114 638.828 93.022 639.374L92.336 638.38C94.142 637.596 95.024 636.392 95.024 635.622V635.342ZM101.982 632.388V639.416H100.568V637.008H98.58V635.832H100.568V632.388H101.982ZM98.356 643.35C100.176 643.35 100.722 642.93 100.722 642.132C100.722 641.348 100.176 640.914 98.356 640.914C96.536 640.914 95.99 641.348 95.99 642.132C95.99 642.93 96.536 643.35 98.356 643.35ZM93.96 633.522V632.36H97.572V633.522H93.96ZM109.028 636.084C108.328 637.176 106.676 638.338 105.122 638.702L104.576 637.722C106.788 637.064 108.328 635.538 108.328 634.208V632.78H109.728V634.208C109.728 635.538 111.268 637.064 113.48 637.722L112.934 638.702C111.38 638.338 109.728 637.176 109.028 636.084ZM108.328 641.04V638.38H109.728V641.04H114.292V642.202H103.778V641.04H108.328ZM119.173 637.554V632.794H120.531V634.502H123.527V632.794H124.885V638.394H119.943C119.425 638.394 119.173 638.114 119.173 637.554ZM126.649 639.304V632.388H128.049V635.062H129.743V636.238H128.049V639.304H126.649ZM120.755 637.26H123.527V635.65H120.531V637.022C120.531 637.204 120.573 637.26 120.755 637.26ZM124.423 644.456C121.707 644.456 120.657 643.49 120.657 642.034C120.657 640.564 121.707 639.612 124.423 639.612C127.139 639.612 128.189 640.564 128.189 642.034C128.189 643.504 127.139 644.456 124.423 644.456ZM124.423 643.35C126.243 643.35 126.789 642.86 126.789 642.034C126.789 641.208 126.243 640.718 124.423 640.718C122.603 640.718 122.057 641.208 122.057 642.034C122.057 642.86 122.603 643.35 124.423 643.35ZM133.975 636.308C133.457 637.344 132.337 638.282 131.119 638.94L130.433 637.96C132.169 636.966 133.275 635.524 133.275 634.208V632.724H134.689V634.208C134.689 635.496 135.753 636.896 137.461 637.82L136.775 638.8C135.613 638.226 134.493 637.274 133.975 636.308ZM139.799 639.892V644.4H138.399V641.04H132.407V639.892H139.799ZM139.799 632.388V639.094H138.385V632.388H139.799Z" fill="black"/>
<path d="M93.803 650.212H98.038V651.939H99.875V649.684H100.711V656.273H99.875V652.654H98.038V654.48H94.364C93.968 654.48 93.803 654.337 93.803 653.864V650.212ZM94.628 650.883V653.655C94.628 653.776 94.65 653.809 94.771 653.809H97.224V650.883H94.628ZM100.931 658.913H95.794C95.409 658.913 95.189 658.726 95.189 658.33V655.723H96.014V658.011C96.014 658.198 96.036 658.209 96.212 658.209H100.931V658.913ZM105.237 653.842C104.863 654.755 103.906 655.833 102.982 656.482L102.454 655.877C103.906 654.799 104.797 653.435 104.797 652.346V650.971H102.927V650.278H107.426V650.971H105.677V652.379C105.677 653.424 106.645 654.832 107.932 655.778L107.448 656.394C106.502 655.668 105.655 654.755 105.237 653.842ZM109.769 658.968H108.933V649.684H109.769V658.968ZM121.624 655.954V658.968H116.564C116.179 658.968 115.937 658.781 115.937 658.352V655.954H116.762V656.867H120.81V655.954H121.624ZM116.96 658.264H120.81V657.538H116.762V658.055C116.762 658.231 116.773 658.264 116.96 658.264ZM114.705 654.645H122.856V655.36H114.705V654.645ZM120.381 649.64V650.344H117.147V649.64H120.381ZM118.775 654.04C117.004 654.04 116.355 653.424 116.355 652.621C116.355 652.192 116.619 651.763 117.037 651.631H115.453V650.982H122.097V651.631H120.513C120.931 651.763 121.195 652.192 121.195 652.621C121.195 653.424 120.546 654.04 118.775 654.04ZM118.775 651.675C117.532 651.675 117.136 652.082 117.136 652.566C117.136 653.05 117.631 653.435 118.775 653.435C119.919 653.435 120.414 653.05 120.414 652.566C120.414 652.082 120.018 651.675 118.775 651.675ZM125.557 658.374V655.327H126.393V656.548H130.265V655.327H131.09V658.968H126.173C125.788 658.968 125.557 658.803 125.557 658.374ZM126.569 658.275H130.265V657.241H126.393V658.066C126.393 658.209 126.404 658.275 126.569 658.275ZM130.243 654.667V649.684H131.079V654.667H130.243ZM128.648 652.049C128.648 653.226 127.988 654.227 126.316 654.227C124.644 654.227 124.017 653.226 124.017 652.049C124.017 650.883 124.644 649.86 126.316 649.86C127.988 649.86 128.648 650.883 128.648 652.049ZM127.812 652.049C127.812 651.026 127.229 650.52 126.316 650.52C125.403 650.52 124.842 651.026 124.842 652.049C124.842 653.116 125.403 653.567 126.316 653.567C127.218 653.567 127.812 653.127 127.812 652.049ZM135.495 653.171V656.141H136.452C137.365 656.141 138.223 656.053 138.971 655.657V649.684H139.807V652.764H141.237V653.479H139.807V658.968H138.971V656.295C138.311 656.702 137.387 656.834 136.562 656.834H132.789V656.141H134.681V653.171H135.495ZM137.783 650.245V652.148C137.783 652.94 137.728 653.996 137.431 654.678L136.672 654.546C136.848 654.007 136.958 653.237 136.958 652.698V650.938H133.394V650.245H137.783ZM151.992 655.327V657.472H147.13V658.275C147.13 658.385 147.163 658.407 147.262 658.407H152.212V659.078H146.811C146.47 659.078 146.305 658.957 146.305 658.572V656.812H151.167V656.009H146.327V655.327H148.736V654.304H145.073V653.611H153.224V654.304H149.583V655.327H151.992ZM151.882 652.874H146.976C146.58 652.874 146.415 652.687 146.415 652.291V649.827H151.882V652.874ZM151.046 650.52H147.251V651.972C147.251 652.115 147.306 652.181 147.427 652.181H151.046V650.52ZM155.957 654.986H161.446V657.263H156.749V658.253C156.749 658.374 156.782 658.396 156.881 658.396H161.765V659.078H156.485C156.056 659.078 155.924 658.891 155.924 658.495V656.592H160.61V655.657H155.957V654.986ZM158.729 650.069V651.114C158.729 651.301 158.707 651.466 158.685 651.62H160.61V649.684H161.446V654.326H160.61V652.335H158.421C157.926 653.193 156.782 653.798 154.78 654.656L154.428 653.974C156.738 652.995 157.893 652.269 157.893 651.257V650.762H154.78V650.069H158.729ZM167.216 655.701L167.315 656.306C166.985 656.46 166.215 656.57 165.577 656.57H164.136C163.784 656.57 163.597 656.416 163.597 656.031V653.061H165.841V650.916H163.597V650.256H166.655V653.721H164.411V655.734C164.411 655.91 164.466 655.921 164.587 655.921H165.61C166.061 655.921 166.875 655.844 167.216 655.701ZM167.04 653.479V652.764H168.36V649.805H169.152V658.66H168.36V653.479H167.04ZM169.999 649.684H170.791V658.968H169.999V649.684ZM179.995 659.122C177.872 659.122 177.124 658.429 177.124 657.329C177.124 656.229 177.872 655.536 179.995 655.536C182.118 655.536 182.866 656.229 182.866 657.329C182.866 658.429 182.118 659.122 179.995 659.122ZM178.015 653.171C177.553 653.919 176.706 654.48 175.859 654.887L175.441 654.304C176.86 653.556 177.553 652.907 177.553 652.071V651.862H175.716V651.18H180.226V651.862H178.433V652.071C178.433 652.83 179.071 653.402 180.6 654.106L180.237 654.744C179.357 654.414 178.488 653.853 178.015 653.171ZM179.995 658.451C181.568 658.451 182.03 658.011 182.03 657.329C182.03 656.647 181.568 656.207 179.995 656.207C178.422 656.207 177.96 656.647 177.96 657.329C177.96 658.011 178.422 658.451 179.995 658.451ZM180.215 653.16V652.445H181.92V649.684H182.756V655.184H181.92V653.16H180.215ZM179.357 650.421H176.684V649.684H179.357V650.421ZM192.65 656.57V657.263H184.499V656.57H188.14V654.37H188.998V656.57H192.65ZM188.613 652.258C188.129 653.182 186.787 654.194 185.511 654.502L185.148 653.875C186.919 653.347 188.151 652.082 188.151 650.938V650.025H189.031V650.938C189.031 652.005 190.263 653.369 192.056 653.853L191.693 654.469C190.461 654.172 189.13 653.204 188.613 652.258ZM200.366 649.772V651.796H195.746V652.489C195.746 652.632 195.812 652.643 195.911 652.643H200.476V653.303H195.438C195.097 653.303 194.899 653.127 194.899 652.775V651.147H199.541V650.432H194.932V649.772H200.366ZM193.557 653.974H201.708V654.667H193.557V653.974ZM200.476 655.36V657.439H195.603V658.264C195.603 658.385 195.636 658.396 195.735 658.396H200.696V659.078H195.284C194.943 659.078 194.778 658.957 194.778 658.572V656.768H199.651V656.042H194.811V655.36H200.476ZM212.563 649.882V650.575H207.987V652.104C207.987 652.247 208.009 652.269 208.152 652.269H212.618V652.962H210.308V654.194H213.96V654.887H205.809V654.194H209.483V652.962H207.712C207.305 652.962 207.151 652.709 207.151 652.313V649.882H212.563ZM209.945 659.122C207.888 659.122 207.096 658.506 207.096 657.351C207.096 656.196 207.888 655.58 209.945 655.58C212.002 655.58 212.794 656.196 212.794 657.351C212.794 658.506 212.002 659.122 209.945 659.122ZM209.945 658.451C211.518 658.451 211.958 658.055 211.958 657.351C211.958 656.647 211.518 656.251 209.945 656.251C208.372 656.251 207.932 656.647 207.932 657.351C207.932 658.055 208.372 658.451 209.945 658.451ZM221.346 658.968V649.684H222.182V658.968H221.346ZM217.661 653.842C217.287 654.755 216.275 655.833 215.351 656.482L214.823 655.877C216.275 654.799 217.221 653.435 217.221 652.346V650.135H218.101V652.379C218.101 653.424 219.124 654.832 220.411 655.778L219.927 656.394C218.981 655.668 218.079 654.755 217.661 653.842ZM226.103 656.581C224.772 656.581 224.101 655.569 224.101 653.358C224.101 651.147 224.772 650.135 226.103 650.135C227.28 650.135 227.94 650.96 228.061 652.731H229.227V649.805H230.008V658.66H229.227V653.446H228.083C228.061 655.602 227.39 656.581 226.103 656.581ZM226.092 655.866C226.862 655.866 227.291 655.261 227.291 653.358C227.291 651.455 226.862 650.861 226.092 650.861C225.322 650.861 224.893 651.455 224.893 653.358C224.893 655.261 225.322 655.866 226.092 655.866ZM230.723 649.684H231.526V658.968H230.723V649.684Z" fill="black"/>
<line x1="93" y1="675.5" x2="304" y2="675.5" stroke="black"/>
<path d="M99.872 694.788C97.916 694.788 97.148 694.188 97.148 693.276C97.148 692.928 97.28 692.652 97.556 692.424H96.188V691.5H103.556V692.424H102.188C102.464 692.652 102.596 692.94 102.596 693.276C102.596 694.188 101.828 694.788 99.872 694.788ZM99.872 692.424C98.588 692.424 98.264 692.676 98.264 693.192C98.264 693.696 98.744 693.924 99.872 693.924C101 693.924 101.48 693.696 101.48 693.192C101.48 692.676 101.156 692.424 99.872 692.424ZM95.372 695.256H104.384V696.18H95.372V695.256ZM103.028 696.684V700.08H97.448C96.98 700.08 96.728 699.84 96.728 699.36V696.684H97.916V697.56H101.84V696.684H103.028ZM98.108 699.168H101.84V698.46H97.916V698.964C97.916 699.12 97.952 699.168 98.108 699.168ZM101.708 689.904V690.876H98.048V689.904H101.708ZM114.24 696.036V700.08H108.72C108.252 700.08 108.024 699.84 108.024 699.36V696.036H109.212V697.236H113.052V696.036H114.24ZM109.416 699.132H113.052V698.184H109.212V698.928C109.212 699.06 109.284 699.132 109.416 699.132ZM108.984 694.956C107.076 694.956 106.344 693.9 106.344 692.544C106.344 691.2 107.076 690.12 108.984 690.12C110.88 690.12 111.612 691.2 111.612 692.544C111.612 693.9 110.868 694.956 108.984 694.956ZM108.984 693.972C109.896 693.972 110.46 693.54 110.46 692.544C110.46 691.596 109.908 691.104 108.984 691.104C108.048 691.104 107.496 691.596 107.496 692.544C107.496 693.54 108.048 693.972 108.984 693.972ZM113.028 695.364V689.904H114.24V695.364H113.028ZM119.824 695.496H117.928C117.292 695.496 117.028 695.328 117.028 694.608V692.412H120.256V691.236H117.148V690.312H121.444V693.324H118.252V694.368C118.252 694.548 118.288 694.56 118.444 694.56H119.896C120.796 694.56 121.468 694.5 121.996 694.32L122.116 695.172C121.624 695.376 120.796 695.496 119.824 695.496ZM124.924 689.904V695.772H123.724V694.092H122.176V693.108H123.724V692.172H122.176V691.188H123.724V689.904H124.924ZM124.924 696.468V700.2H123.724V697.452H118.588V696.468H124.924ZM136.127 693.372C135.527 694.308 134.171 695.004 132.839 695.316L132.323 694.416C134.219 693.852 135.527 692.964 135.527 691.884V691.452H132.839V690.48H139.427V691.452H136.727V691.884C136.727 692.964 138.059 693.852 139.955 694.416L139.439 695.316C138.107 695.004 136.727 694.308 136.127 693.372ZM136.727 697.32H140.639V698.316H131.627V697.32H135.527V695.16H136.727V697.32ZM144.302 699.54V697.428H149.294V696.552H144.362V695.628H150.494V698.316H145.502V699.108C145.502 699.252 145.514 699.264 145.646 699.264H150.854V700.2H144.962C144.47 700.2 144.302 699.972 144.302 699.54ZM145.274 693.096C144.83 693.864 143.846 694.656 142.838 695.172L142.226 694.296C143.654 693.564 144.662 692.424 144.662 691.416V691.224H142.682V690.264H147.758V691.224H145.874V691.416C145.874 692.4 146.834 693.42 148.13 694.068L147.518 694.944C146.642 694.524 145.658 693.72 145.274 693.096ZM150.494 689.904V694.944H149.282V692.88H147.434V691.872H149.282V689.904H150.494Z" fill="black"/>
<circle cx="304" cy="573" r="18" fill="white" fill-opacity="0.74"/>
<rect x="299" y="568" width="10" height="10" rx="1" fill="black"/>
<rect x="304" y="517" width="5" height="11" fill="#FF4743"/>
<rect x="304.5" y="517.5" width="18" height="10" stroke="black"/>
<circle cx="308" cy="417" r="18" fill="white" fill-opacity="0.82"/>
<circle cx="308" cy="417" r="3" fill="black"/>
<path d="M305 411L308 408L311 411" stroke="black" stroke-linejoin="round"/>
<path d="M314 414L317 417L314 420" stroke="black" stroke-linejoin="round"/>
<path d="M311 423L308 426L305 423" stroke="black" stroke-linejoin="round"/>
<path d="M302 420L299 417L302 414" stroke="black" stroke-linejoin="round"/>
<rect y="703" width="360" height="97" fill="#F1F1F1"/>
<rect x="82" y="710" width="196" height="38" rx="19" fill="white" fill-opacity="0.76"/>
<rect x="84" y="712" width="96" height="34" rx="17" fill="#23778E"/>
<path d="M189.12 728.88C185.42 728.88 183.82 727.38 183.82 724.9C183.82 722.36 185.42 720.88 189.12 720.88C192.82 720.88 194.42 722.36 194.42 724.9C194.42 727.38 192.82 728.88 189.12 728.88ZM185.26 732.06H181.62V730.44H196.64V732.06H193V737.8H191V732.06H187.26V737.8H185.26V732.06ZM189.12 727.18C191.44 727.18 192.46 726.3 192.46 724.88C192.46 723.44 191.44 722.58 189.12 722.58C186.8 722.58 185.78 723.44 185.78 724.88C185.78 726.3 186.8 727.18 189.12 727.18ZM208.806 728.98H212.646V730.56H197.626V728.98H201.506V726.94C200.306 726.38 199.766 725.46 199.766 724.22C199.766 722.1 201.346 720.86 205.126 720.86C208.906 720.86 210.486 722.1 210.486 724.22C210.486 725.44 209.966 726.36 208.806 726.92V728.98ZM205.146 738.08C201.166 738.08 199.686 736.82 199.686 734.84C199.686 732.86 201.166 731.6 205.146 731.6C209.126 731.6 210.586 732.86 210.586 734.84C210.586 736.82 209.126 738.08 205.146 738.08ZM205.126 726.02C207.706 726.02 208.546 725.3 208.546 724.22C208.546 723.14 207.706 722.42 205.126 722.42C202.546 722.42 201.706 723.14 201.706 724.22C201.706 725.3 202.546 726.02 205.126 726.02ZM205.146 736.52C207.626 736.52 208.566 735.92 208.566 734.84C208.566 733.76 207.626 733.16 205.146 733.16C202.666 733.16 201.706 733.76 201.706 734.84C201.706 735.92 202.666 736.52 205.146 736.52ZM205.126 727.56C204.486 727.56 203.926 727.54 203.426 727.46V728.98H206.886V727.46C206.366 727.52 205.766 727.56 205.126 727.56ZM215.673 722.58V720.98H220.733V722.58H215.673ZM229.113 726.02V727.62H226.693V733.66H224.693V720.84H226.693V726.02H229.113ZM218.213 731.18C215.933 731.18 214.453 729.92 214.453 727.66C214.453 726.78 214.793 725.78 215.333 725.42H213.433V723.8H222.893V725.42H221.093C221.633 725.78 221.973 726.78 221.973 727.66C221.973 729.92 220.453 731.18 218.213 731.18ZM218.213 725.4C216.893 725.4 216.333 726.28 216.333 727.56C216.333 728.82 216.893 729.64 218.213 729.64C219.533 729.64 220.093 728.82 220.093 727.56C220.093 726.28 219.533 725.4 218.213 725.4ZM216.333 736.58V732.64H218.333V735.76C218.333 736.06 218.373 736.08 218.633 736.08H227.093V737.7H217.473C216.713 737.7 216.333 737.32 216.333 736.58ZM246.484 737.8V720.84H248.484V737.8H246.484ZM237.004 733.7L236.104 732.12C241.044 729.58 241.624 728.38 241.624 726.54V723.54H236.164V721.88H243.704V726.4C243.704 729.58 242.344 730.98 237.004 733.7ZM263.75 725.4V727.02H254.25C253.47 727.02 253.17 726.52 253.17 725.88V721.08H255.17V725.1C255.17 725.36 255.21 725.4 255.45 725.4H263.75ZM250.85 728.46H265.87V730.08H250.85V728.46ZM258.35 738.08C254.37 738.08 252.91 736.82 252.91 734.72C252.91 732.62 254.37 731.38 258.35 731.38C262.33 731.38 263.79 732.62 263.79 734.72C263.79 736.82 262.33 738.08 258.35 738.08ZM258.35 736.52C260.83 736.52 261.77 735.88 261.77 734.72C261.77 733.56 260.83 732.94 258.35 732.94C255.87 732.94 254.93 733.56 254.93 734.72C254.93 735.88 255.87 736.52 258.35 736.52Z" fill="#909090"/>
<path d="M120.72 729.84C120.18 731.04 118.96 732.78 117.68 733.74L116.44 732.34C118.3 730.86 119.74 728.64 119.74 726.5V723.54H117.04V721.92H124.2V723.54H121.66V726.5C121.66 728.6 123.08 730.78 124.9 732.14L123.66 733.54C122.42 732.64 121.24 731 120.72 729.84ZM125.86 737.24V727.7H123.26V726.04H125.86V721.06H127.72V737.24H125.86ZM128.9 737.8V720.84H130.78V737.8H128.9ZM145.386 737.8H136.026C135.246 737.8 134.886 737.48 134.886 736.68V732.04H139.146V730.18H132.626V728.58H147.646V730.18H141.106V732.04H145.386V737.8ZM134.586 722.78V721.16H145.666V722.78H143.526V725.72H145.846V727.32H134.426V725.72H136.726V722.78H134.586ZM137.206 736.18H143.386V733.64H136.886V735.9C136.886 736.08 136.986 736.18 137.206 736.18ZM138.666 722.78V725.72H141.586V722.78H138.666Z" fill="white"/>
</svg>
