<svg width="36" height="36" viewBox="0 0 36 36" fill="none" xmlns="http://www.w3.org/2000/svg">
<g id="edit_button">
<circle id="Ellipse 66" cx="18" cy="18" r="18" fill="white"/>
<path id="icon" d="M11.5833 24.4167H12.8896L21.85 15.4563L20.5438 14.15L11.5833 23.1104V24.4167ZM9.75 26.25V22.3542L21.85 10.2771C22.0333 10.109 22.2358 9.97917 22.4573 9.8875C22.6788 9.79583 22.9118 9.75 23.1562 9.75C23.4007 9.75 23.6375 9.79583 23.8667 9.8875C24.0958 9.97917 24.2944 10.1167 24.4625 10.3L25.7229 11.5833C25.9063 11.7514 26.0399 11.95 26.124 12.1792C26.208 12.4083 26.25 12.6375 26.25 12.8667C26.25 13.1111 26.208 13.3441 26.124 13.5656C26.0399 13.7872 25.9063 13.9896 25.7229 14.1729L13.6458 26.25H9.75ZM21.1854 14.8146L20.5438 14.15L21.85 15.4563L21.1854 14.8146Z" fill="#1D1B20"/>
</g>
</svg>
