<svg width="22" height="22" viewBox="0 0 22 22" fill="none" xmlns="http://www.w3.org/2000/svg">
<path id="&#235;&#143;&#139;&#235;&#179;&#180;&#234;&#184;&#176;" fill-rule="evenodd" clip-rule="evenodd" d="M3.56396 9.83772C3.56396 6.36689 6.37763 3.55322 9.84846 3.55322C13.3193 3.55322 16.133 6.36689 16.133 9.83772C16.133 13.3085 13.3193 16.1222 9.84846 16.1222C6.37763 16.1222 3.56396 13.3085 3.56396 9.83772ZM9.84846 0.553223C4.72077 0.553223 0.563965 4.71003 0.563965 9.83772C0.563965 14.9654 4.72077 19.1222 9.84846 19.1222C11.8876 19.1222 13.7732 18.4649 15.3049 17.3505L19.6479 21.404C20.1526 21.875 20.9436 21.8477 21.4146 21.3431C21.8856 20.8384 21.8584 20.0474 21.3537 19.5763L17.1137 15.6191C18.3776 14.0329 19.133 12.0235 19.133 9.83772C19.133 4.71003 14.9761 0.553223 9.84846 0.553223Z" fill="#666F78"/>
</svg>
