<svg width="66" height="65" viewBox="0 0 66 65" fill="none" xmlns="http://www.w3.org/2000/svg">
<path d="M38.6533 16.7948V30.1653C38.6533 33.2883 36.1217 35.82 32.9987 35.82C29.8757 35.82 27.344 33.2883 27.344 30.1653V16.7948C27.344 13.6718 29.8757 11.1401 32.9987 11.1401C36.1217 11.1401 38.6533 13.6718 38.6533 16.7948Z" fill="#ADACA8" stroke="#ADACA8"/>
<path fill-rule="evenodd" clip-rule="evenodd" d="M20.8887 30.3776C20.9891 36.2161 25.2209 41.048 30.7861 42.0751L30.7861 52.0249C30.7861 53.1295 31.6816 54.0249 32.7861 54.0249C33.8907 54.0249 34.7861 53.1295 34.7861 52.0249L34.7861 42.1457C40.5593 41.2915 45.0051 36.3637 45.108 30.3776H42.1074C41.9946 35.3116 37.9595 39.2767 32.9984 39.2767C28.0372 39.2767 24.0021 35.3116 23.8893 30.3776H20.8887Z" fill="#ADACA8"/>
<circle cx="33" cy="32.5" r="29.5" stroke="#ADACA8" stroke-width="6"/>
</svg>
