<svg width="20" height="23" viewBox="0 0 20 23" fill="none" xmlns="http://www.w3.org/2000/svg">
<path id="&#236;&#149;&#140;&#235;&#166;&#188; &#235;&#178;&#168; " fill-rule="evenodd" clip-rule="evenodd" d="M11.7397 3.27324C11.8546 3.04174 11.9191 2.78088 11.9191 2.50495C11.9191 1.54866 11.1439 0.773438 10.1876 0.773438C9.23129 0.773438 8.45607 1.54866 8.45607 2.50495C8.45607 2.7809 8.52062 3.04178 8.63545 3.2733C6.05991 3.9205 4.10917 6.14116 3.8647 8.85384H3.83881V9.43106V15.7799H1.37598C0.823692 15.7799 0.375977 16.2276 0.375977 16.7799V18.243C0.375977 18.7952 0.823692 19.243 1.37598 19.243H18.9998C19.5521 19.243 19.9998 18.7952 19.9998 18.243V16.7799C19.9998 16.2276 19.5521 15.7799 18.9998 15.7799H16.5366V9.43106V8.85384H16.5107C16.2662 6.14108 14.3154 3.92037 11.7397 3.27324ZM14.2282 20.6104C14.207 21.7697 12.4063 22.706 10.1881 22.706C7.9568 22.706 6.14794 21.7585 6.14794 20.5897C6.14794 20.478 6.24603 20.3973 6.35773 20.3973L14.0392 20.3973C14.139 20.3973 14.2263 20.4693 14.2282 20.5691V20.6104Z" fill="#666F78"/>
</svg>
