<svg width="47" height="47" viewBox="0 0 47 47" fill="none" xmlns="http://www.w3.org/2000/svg">
<path d="M21.752 1.71232C22.452 0.117383 24.7147 0.117379 25.4147 1.71232L30.6268 13.5876C30.91 14.2328 31.5118 14.6814 32.2109 14.7685L44.7312 16.3286C46.3962 16.536 47.081 18.5781 45.8778 19.7475L36.4899 28.8713C36.0084 29.3392 35.7938 30.0174 35.9186 30.6771L38.39 43.7487C38.7092 45.4369 36.8917 46.7153 35.4108 45.8441L24.5974 39.4831C23.9715 39.1149 23.1952 39.1149 22.5693 39.4831L11.7559 45.8441C10.275 46.7153 8.45744 45.4369 8.77663 43.7487L11.2481 30.6771C11.3728 30.0174 11.1583 29.3391 10.6768 28.8713L1.28889 19.7475C0.0856215 18.5781 0.770454 16.536 2.43548 16.3286L14.9557 14.7685C15.6549 14.6814 16.2567 14.2328 16.5398 13.5877L21.752 1.71232Z" fill="#ADACA8"/>
</svg>
